<?xml version="1.0" encoding="UTF-8"?>
<svg width="90px" height="20px" viewBox="0 0 90 20" version="1.1" xmlns="http://www.w3.org/2000/svg" xmlns:xlink="http://www.w3.org/1999/xlink">
    <!-- Generator: Sketch 52.6 (67491) - http://www.bohemiancoding.com/sketch -->
    <title>水印</title>
    <desc>Created with Sketch.</desc>
    <defs>
        <linearGradient x1="71.0881407%" y1="93.3640259%" x2="0%" y2="0%" id="linearGradient-1">
            <stop stop-color="#BFBFBF" offset="0%"></stop>
            <stop stop-color="#CBCBCB" offset="67.3096511%"></stop>
            <stop stop-color="#E3E3E3" offset="100%"></stop>
        </linearGradient>
        <linearGradient x1="50%" y1="100%" x2="32.4891787%" y2="-8.67079395%" id="linearGradient-2">
            <stop stop-color="#CECECE" offset="0%"></stop>
            <stop stop-color="#E7E7E7" offset="100%"></stop>
        </linearGradient>
        <polygon id="path-3" points="0 0 69 0 69 15 0 15"></polygon>
    </defs>
    <g id="Page-1" stroke="none" stroke-width="1" fill="none" fill-rule="evenodd">
        <g id="Artboard" transform="translate(-529.000000, -678.000000)">
            <g id="水印" transform="translate(529.000000, 678.000000)">
                <g id="Group">
                    <path d="M0.413295556,4 C0.413295556,4 0.587005382,6.55611929 2.71638757,8.41605875 C3.75712172,9.32508377 6.15410619,10.5161518 9.50450072,10.9881183 C9.50450072,10.9881183 16.5227413,12.3570001 16.9708563,14.539451 C17.1608698,15.5957686 16.4547118,16.9440146 13.8763935,18.4439399 C9.98340498,20.5639891 4.23414931,21.1111464 1.71441851,16.2243569 C-0.864779468,10.6547329 0.162348783,5.13422697 0.413295556,4 Z" id="SVGID_1_" fill="url(#linearGradient-1)"></path>
                    <path d="M6.81775239,0 C5.53139825,2.10121325 3.98406608,5.17359116 3.70217126,7.7653481 C3.52486038,9.39556243 3.85006259,10.4090641 4.00424596,10.9700291 C4.6029536,13.3688039 4.06966053,15.5477753 3.3331515,16.9569233 C3.13537731,17.3695886 3.02835591,17.9575554 3.76458152,18.5161149 C4.46809984,18.9615553 7.23795877,19.2634468 8.85903821,18.6677222 C10.5095372,18.0612329 12.1165587,16.824079 12.9488088,15.105402 C15.0197976,11.2491885 12.8862285,8.300514 11.5492546,6.63427715 C11.5492546,6.63427715 10.2695326,5.06841022 9.31835728,3.8480347 C8.78495083,3.19950912 7.38562336,1.91153877 6.81775239,0 Z" id="Path" fill="url(#linearGradient-2)"></path>
                </g>
                <g id="Group-3" transform="translate(21.000000, 5.000000)">
                    <mask id="mask-4" fill="white">
                        <use xlink:href="#path-3"></use>
                    </mask>
                    <g id="Clip-2"></g>
                    <path d="M54.0716862,9.66346534 C53.4400964,9.66346534 52.9272264,10.1414166 52.9272264,10.7308897 C52.9272264,11.3194778 53.4400964,11.797429 54.0716862,11.797429 C54.7042257,11.797429 55.2170957,11.3194778 55.2170957,10.7308897 C55.2170957,10.1414166 54.7042257,9.66346534 54.0716862,9.66346534 Z M58.0654233,0.278804871 C57.5449553,0.278804871 57.124212,0.67267207 57.124212,1.15681894 C57.124212,1.64096581 57.5449553,2.03394792 58.0654233,2.03394792 C58.5849415,2.03394792 59.0056848,1.64096581 59.0056848,1.15681894 C59.0056848,0.67267207 58.5849415,0.278804871 58.0654233,0.278804871 Z M49.9326359,8.33051253 C49.7721266,9.89713038 48.7321404,10.7353152 46.8117275,10.8477222 C45.5314522,10.8848962 44.9122092,10.4927992 44.9520991,9.67320139 C44.9122092,8.8155445 45.6910117,8.29422364 47.2923056,8.10746863 C48.5706813,7.9587727 49.4520578,7.67908274 49.9326359,7.26839874 L49.9326359,8.33051253 Z M51.61181,6.65414293 C51.7305299,4.38033431 50.4113145,3.28016144 47.6513145,3.3553945 C45.2911631,3.31822051 44.0460289,3.93867199 43.5189126,5.53892344 L43.5274604,5.54157873 C43.5122643,5.60353536 43.5018169,5.6663771 43.5018169,5.7336443 C43.5018169,6.19035323 43.8902684,6.56032287 44.368947,6.56032287 C44.7583482,6.56032287 45.0841156,6.31515161 45.1942877,5.97881557 L45.2018858,5.98058576 C45.5181555,5.06274242 46.2513696,4.58567631 47.6513145,4.58567631 C49.1718789,4.51132834 49.892746,5.05123619 49.8120165,6.20717004 C49.4919477,6.54262098 48.3721817,6.84089793 46.4517688,7.10023072 C44.2511769,7.36133369 43.1523056,8.23934776 43.1523056,9.72807727 C43.2320853,11.1822881 44.1922918,11.9461249 46.0319752,12.021358 C47.8716586,11.9832989 49.1519339,11.443391 49.8709016,10.3998642 C49.9516311,11.0335921 50.1111906,11.4982669 50.3514797,11.797429 L52.0914384,11.797429 C51.7704198,11.312397 51.61181,10.7353152 51.61181,10.0644133 L51.61181,6.65414293 Z M17.0861666,3.04295602 C16.7072127,3.04295602 16.3814453,3.26422973 16.24468,3.57843839 L14.2045974,9.11382146 L13.8455884,10.1759353 L13.7848039,10.1759353 L13.4248451,9.11382146 L11.2157054,3.60676143 C11.2147557,3.60499124 11.2147557,3.60233595 11.2138059,3.59968067 L11.2043083,3.57843839 L11.2014591,3.57932349 C11.0570957,3.28901238 10.7436752,3.08455548 10.3780179,3.08455548 C9.87559532,3.08455548 9.46909842,3.46426116 9.46909842,3.93159123 C9.46909842,4.06435546 9.5042395,4.18738364 9.56217481,4.29802049 L12.9452168,11.517739 C12.6650379,12.1514669 12.4845836,12.5426788 12.4057536,12.6922598 C12.084735,13.4003357 11.5443221,13.7357867 10.7845148,13.6986127 C10.4255058,13.6986127 10.0446524,13.6233796 9.64575361,13.4755688 L9.7644735,14.7049655 C10.0854921,14.8908354 10.6249553,14.9846555 11.3857123,14.9846555 C12.6241982,15.1333514 13.6252443,14.2013465 14.3850516,12.1886409 C14.8238403,11.256636 15.7745492,9.13240845 17.8944116,4.32457333 L17.884914,4.32014786 C17.9542464,4.19711968 17.9979353,4.05904489 17.9979353,3.91034895 C17.9979353,3.43062756 17.5895389,3.04295602 17.0861666,3.04295602 Z M58.0654233,3.58020858 C57.5686992,3.58020858 57.1660014,3.96699502 57.1660014,4.44583133 L57.1660014,10.9309211 C57.1660014,11.4097574 57.5686992,11.797429 58.0654233,11.797429 C58.563097,11.797429 58.9648451,11.4097574 58.9648451,10.9309211 L58.9648451,4.44583133 C58.9648451,3.96699502 58.563097,3.58020858 58.0654233,3.58020858 Z M24.9302271,8.64649139 C24.7174811,10.0440561 23.9386786,10.7592127 22.5900206,10.7910762 C20.9896765,10.7539022 20.1700344,9.74843445 20.1301445,7.7711326 C20.1700344,5.79737113 20.9896765,4.77243132 22.5900206,4.69719826 C23.9025877,4.86713647 24.6813902,5.54954458 24.9302271,6.73999712 L24.9302271,8.64649139 Z M25.8600413,0 C25.3462216,0 24.9302271,0.38855663 24.9302271,0.867392933 L24.9302271,4.97600313 C24.449649,3.96965031 23.5293324,3.42974246 22.1702271,3.3553945 C19.6096765,3.39256848 18.3104061,4.90165516 18.2705162,7.88353964 C18.3502959,10.4927992 19.5697866,11.8717769 21.9299381,12.021358 C23.408713,12.021358 24.4097591,11.517739 24.9302271,10.5113862 L24.9302271,10.9309211 C24.9302271,11.4097574 25.3462216,11.797429 25.8600413,11.797429 C26.3729112,11.797429 26.7898555,11.4097574 26.7898555,10.9309211 L26.7898555,0.867392933 C26.7898555,0.38855663 26.3729112,0 25.8600413,0 Z M6.65971094,8.64649139 C6.4469649,10.0440561 5.66816242,10.7592127 4.31950447,10.7910762 C2.71916036,10.7539022 1.89951824,9.74843445 1.85962836,7.7711326 C1.89951824,5.79737113 2.71916036,4.77243132 4.31950447,4.69719826 C5.63207158,4.86713647 6.40992429,5.54954458 6.65971094,6.73999712 L6.65971094,8.64649139 Z M7.58952512,0 C7.07570544,0 6.65971094,0.38855663 6.65971094,0.867392933 L6.65971094,4.97600313 C6.17913283,3.96965031 5.25786648,3.42974246 3.89971094,3.3553945 C1.33916036,3.39256848 0.039889883,4.90165516 0,7.88353964 C0.079779766,10.4927992 1.29927047,11.8717769 3.65942189,12.021358 C5.13819683,12.021358 6.13924295,11.517739 6.65971094,10.5113862 L6.65971094,10.9353466 L6.6606607,10.9353466 C6.66256022,11.4124127 7.07760496,11.797429 7.58952512,11.797429 C8.10144529,11.797429 8.51554026,11.4124127 8.51838954,10.9353466 L8.5193393,10.9353466 L8.5193393,0.867392933 C8.5193393,0.38855663 8.1033448,0 7.58952512,0 Z M64.5608259,10.7910762 C62.8398624,10.7167282 61.9594357,9.71037537 61.9214453,7.7711326 C61.9594357,5.79737113 62.8398624,4.79013322 64.5608259,4.75295923 C66.2001101,4.86448118 67.0596421,5.870834 67.1403716,7.7711326 C67.099532,9.74843445 66.2409498,10.7539022 64.5608259,10.7910762 Z M64.6197109,3.41115547 C61.7001514,3.52356251 60.1805368,4.99547522 60.0618169,7.82777867 C60.2204267,10.4750973 61.7001514,11.8717769 64.4990915,12.021358 C67.4196008,11.9461249 68.9192705,10.5299732 69,7.7711326 C68.8803304,4.97600313 67.4196008,3.52356251 64.6197109,3.41115547 Z M41.3401652,10.7910762 C40.5803579,10.8282501 40.2203992,10.4193363 40.2602891,9.56079434 L40.2602891,8.44026429 C40.2602891,8.43406863 40.2621886,8.42875806 40.2621886,8.42256239 L40.2621886,4.86448118 L42.2395871,4.86448118 L42.2395871,3.57843839 L40.2621886,3.57843839 L40.2621886,0.867392933 C40.2621886,0.38855663 39.8594907,0 39.3627667,0 C38.8650929,0 38.462395,0.38855663 38.462395,0.867392933 L38.462395,0.951476941 L38.4604955,0.950591846 L38.4604955,3.57843839 L37.0197109,3.57843839 L37.0197109,4.86448118 L38.4604955,4.86448118 L38.4604955,9.84048431 C38.4206056,11.330984 39.1804129,12.0576469 40.7408672,12.021358 C41.4997247,12.021358 42.0800275,11.8717769 42.4798761,11.5735 L42.180702,10.6237932 C41.9404129,10.7353152 41.660234,10.7910762 41.3401652,10.7910762 Z M34.7545354,8.33051253 C34.5940262,9.89713038 33.5549897,10.7353152 31.6345767,10.8477222 C30.3533517,10.8848962 29.7341087,10.4927992 29.7749484,9.67320139 C29.7341087,8.8155445 30.513861,8.29422364 32.1151549,8.10746863 C33.3935306,7.9587727 34.2739573,7.67908274 34.7545354,7.26839874 L34.7545354,8.33051253 Z M36.4346593,6.65414293 C36.5533792,4.38033431 35.2341638,3.28016144 32.4741638,3.3553945 C30.1130626,3.31822051 28.8688782,3.93867199 28.3408121,5.53892344 L28.3503097,5.54157873 C28.3341638,5.60353536 28.3246662,5.6663771 28.3246662,5.7336443 C28.3246662,6.19035323 28.7131177,6.56032287 29.1917963,6.56032287 C29.5811975,6.56032287 29.9069649,6.31515161 30.017137,5.97881557 L30.024735,5.98058576 C30.3410048,5.06274242 31.0742189,4.58567631 32.4741638,4.58567631 C33.9937784,4.51132834 34.7146456,5.05123619 34.6348658,6.20717004 C34.3138472,6.54262098 33.195031,6.84089793 31.274618,7.10023072 C29.0740262,7.36133369 27.9742051,8.23934776 27.9742051,9.72807727 C28.0549346,11.1822881 29.0141913,11.9461249 30.8548245,12.021358 C32.6935582,11.9832989 33.9747832,11.443391 34.6937509,10.3998642 C34.7735306,11.0335921 34.9340399,11.4982669 35.174329,11.797429 L36.9142877,11.797429 C36.5932691,11.312397 36.4346593,10.7353152 36.4346593,10.0644133 L36.4346593,6.65414293 Z" id="Fill-1" fill="#DBDBDB" mask="url(#mask-4)"></path>
                </g>
            </g>
        </g>
    </g>
</svg>