<?xml version="1.0" encoding="UTF-8"?>
<svg width="99px" height="72px" viewBox="0 0 99 72" version="1.1" xmlns="http://www.w3.org/2000/svg" xmlns:xlink="http://www.w3.org/1999/xlink">
    <title>Fill 36</title>
    <g id="页面-1" stroke="none" stroke-width="1" fill="none" fill-rule="evenodd">
        <g id="收藏成功" transform="translate(-325.000000, -398.000000)" fill="#FFFFFF">
            <g id="Element/Toast/Done" transform="translate(255.000000, 338.000000)">
                <path d="M70.4998191,98.1227952 L74.776159,92.3040615 C75.1032209,91.8590346 75.7291226,91.7634051 76.1741495,92.0904671 C76.1795638,92.0944462 76.184938,92.0984799 76.190271,92.1025673 L101.244405,111.305124 C101.615339,111.589424 102.13372,111.578887 102.492795,111.279749 L163.349991,60.580782 C163.745485,60.2513032 164.326491,60.2758852 164.692741,60.6375932 L168.705855,64.6009308 C169.098809,64.9890105 169.10276,65.6221632 168.71468,66.0151168 C168.711347,66.0184914 168.70799,66.0218423 168.70461,66.0251692 L102.59607,131.085848 C102.202438,131.47324 101.569293,131.468182 101.181901,131.07455 C101.179754,131.072368 101.177616,131.070176 101.175489,131.067975 L70.5864662,99.4098529 C70.2477474,99.0592958 70.2111441,98.5155897 70.4998191,98.1227952 Z" id="Fill-36"></path>
            </g>
        </g>
    </g>
</svg>