<?xml version="1.0" encoding="UTF-8"?>
<svg width="16px" height="14px" viewBox="0 0 16 14" version="1.1" xmlns="http://www.w3.org/2000/svg" xmlns:xlink="http://www.w3.org/1999/xlink">
    <!-- Generator: Sketch 57.1 (83088) - https://sketch.com -->
    <title>电脑2</title>
    <desc>Created with Sketch.</desc>
    <g id="Page-1" stroke="none" stroke-width="1" fill="none" fill-rule="evenodd">
        <g id="show代码pc1" transform="translate(-1179.000000, -23.000000)" fill-rule="nonzero">
            <g id="全屏" transform="translate(1166.000000, 12.000000)">
                <g id="电脑2" transform="translate(13.000000, 10.000000)">
                    <rect id="矩形" fill="#000000" opacity="0" x="0" y="0" width="16" height="16"></rect>
                    <path d="M12.0322188,13.9915 L10.2878438,13.9915 L10.2878438,13.150625 L5.712375,13.150625 L5.712375,13.9915 L3.968,13.9915 C3.70509375,13.9915 3.49196875,14.204625 3.49196875,14.4675313 C3.49196875,14.7304375 3.70509375,14.9435625 3.968,14.9435625 L12.03225,14.9435625 C12.2951563,14.9435625 12.5082812,14.7304375 12.5082812,14.4675313 C12.5082812,14.2046563 12.295125,13.9915 12.0322188,13.9915 Z M0,10.1985625 L0,11.6584905 C0,11.9567657 0.213125,12.1985625 0.47603125,12.1985625 L15.5239687,12.1985625 C15.786875,12.1985625 16,11.9567657 16,11.6584905 L16,10.1985625 L0,10.1985625 Z M15.5239687,1.05640625 L0.47603125,1.05640625 C0.213125,1.05640625 0,1.25875652 0,1.50830505 L0,9.05640625 L16,9.05640625 L16,1.50830505 C16,1.25875652 15.786875,1.05640625 15.5239687,1.05640625 Z" id="形状" fill="#FFFFFF"></path>
                </g>
            </g>
        </g>
    </g>
</svg>