<?xml version="1.0" encoding="UTF-8"?>
<svg width="195px" height="72px" viewBox="0 0 195 72" version="1.1" xmlns="http://www.w3.org/2000/svg" xmlns:xlink="http://www.w3.org/1999/xlink">
    <title>镝数聚6月8日</title>
    <g id="页面-1" stroke="none" stroke-width="1" fill="none" fill-rule="evenodd">
        <g id="查询数据" transform="translate(-505.000000, -1042.000000)">
            <g id="编组-5" transform="translate(39.000000, 1042.000000)">
                <g id="镝数聚6月8日" transform="translate(466.000000, 0.000000)">
                    <path d="M193.330408,25.9761865 L193.378368,25.9779203 C193.537406,25.9894409 193.68725,26.0579943 193.800593,26.1721738 L193.800593,26.1721738 L193.833164,26.2075059 C193.937131,26.3287799 193.994677,26.484118 193.99406,26.6453495 L193.99406,26.6453495 L193.99406,28.1821929 L193.992929,28.2213745 C193.972753,28.5714205 193.683983,28.8490556 193.330408,28.8490556 L193.330408,28.8490556 L179.176082,28.8490556 L179.176082,42.3680331 L179.174957,42.4072411 C179.154812,42.7575411 178.866467,43.0358734 178.51267,43.0374261 L178.51267,43.0374261 L177.030344,43.0374261 L176.991335,43.036125 C176.642855,43.0143511 176.366932,42.7233832 176.366932,42.3680331 L176.366932,42.3680331 L176.366932,28.8490556 L161.183673,28.8490556 L161.144663,28.8479235 C160.796152,28.8276394 160.519801,28.5373212 160.519801,28.1821929 L160.519801,28.1821929 L160.519801,26.6453495 L160.520925,26.6061177 C160.54107,26.255612 160.829432,25.9772956 161.183673,25.9761865 L161.183673,25.9761865 L193.330408,25.9761865 Z M100.874126,8.037145 L100.912941,8.03827449 C101.25971,8.05851157 101.534778,8.34815641 101.534778,8.7023974 L101.534778,8.7023974 L101.534778,10.4393687 L111.564401,10.4393687 L111.612235,10.4416665 C111.770844,10.4550641 111.920156,10.5254424 112.031826,10.6408766 L112.031826,10.6408766 L112.064062,10.6767398 C112.16684,10.7996747 112.222529,10.9556022 112.220356,11.1170428 L112.220356,11.1170428 L112.220356,12.6030492 L112.218993,12.642178 C112.197345,12.9917198 111.909055,13.2680715 111.55681,13.2680715 L111.55681,13.2680715 L109.288235,13.2680715 L107.433257,17.5756498 L107.984414,17.5756498 L108.064676,17.5888542 C110.198077,17.9595095 111.773676,19.8085387 111.806165,21.9959437 L111.806165,21.9959437 L111.806165,38.3742184 L111.804629,38.4529876 C111.737694,40.8372747 109.823387,42.7575623 107.445909,42.8071641 L107.445909,42.8071641 L106.169232,42.8071641 L106.169232,39.9883526 L107.445909,39.9883526 L107.515847,39.9864764 C107.911032,39.9669881 108.285538,39.7975795 108.563404,39.5108063 L108.563404,39.5108063 L108.611121,39.4593076 C108.874449,39.1620843 109.017014,38.7746145 109.008976,38.3742184 L109.008976,38.3742184 L109.008976,21.9959437 L109.008813,21.9274716 C108.999266,21.5175474 108.836029,21.1254544 108.550983,20.8306019 L108.550983,20.8306019 L108.502494,20.7825819 C108.206196,20.5012293 107.814723,20.3423046 107.406114,20.3392536 L107.406114,20.3392536 L92.8388804,20.3392536 L92.7708764,20.3410945 C92.3639542,20.3607536 91.9783187,20.5348413 91.6924011,20.8299118 L91.6924011,20.8299118 L91.6459216,20.8799444 C91.3738999,21.1854004 91.22586,21.5840655 91.2334874,21.9959437 L91.2334874,42.8071641 L88.4362989,42.8071641 L88.4362989,21.9959437 L88.4370995,21.9142248 C88.4773972,19.7663637 90.0316193,17.9449373 92.1434938,17.5883016 L92.1434938,17.5883016 L92.1574225,17.5864334 C92.2556165,17.5762691 92.7200486,17.5632281 92.7694107,17.5632281 L92.7694107,17.5632281 L90.9369762,13.2554198 L88.6930145,13.2554198 L88.6454145,13.2536974 C88.4875238,13.2422528 88.3383262,13.1741557 88.2258197,13.0608127 L88.2258197,13.0608127 L88.1934251,13.0257316 C88.0900058,12.905294 88.0325928,12.7507924 88.0325928,12.5903974 L88.0325928,12.5903974 L88.0325928,11.104391 L88.0337136,11.0653309 C88.0537948,10.716362 88.3412136,10.4393687 88.6930145,10.4393687 L88.6930145,10.4393687 L98.7299986,10.4393687 L98.7299986,8.7023974 L98.7311211,8.66331352 C98.7512325,8.31413839 99.0390712,8.037145 99.3906504,8.037145 L99.3906504,8.037145 L100.874126,8.037145 Z M174.05373,36.384442 L174.094024,36.3860757 C174.187781,36.3936866 174.279162,36.4278031 174.356452,36.4865762 L174.356452,36.4865762 L174.386487,36.5111579 C174.502287,36.6136438 174.565498,36.7648443 174.55658,36.9213366 L174.55658,36.9213366 L174.55658,38.4303462 L174.553013,38.4776767 C174.514999,38.8539378 174.251318,39.170865 173.886727,39.271343 L173.886727,39.271343 L160.540273,42.6196881 L160.500277,42.6317652 C160.35259,42.6697409 160.1949,42.6385507 160.072388,42.5449277 L160.072388,42.5449277 L160.042505,42.5203168 C159.927275,42.417803 159.864227,42.2676154 159.872721,42.1115475 L159.872721,42.1115475 L159.872721,40.6023079 L159.876255,40.5550602 C159.913962,40.1794588 160.176344,39.8631232 160.540273,39.7615411 L160.540273,39.7615411 L173.886727,36.4134261 C173.941245,36.3941034 173.997602,36.384442 174.05373,36.384442 L174.05373,36.384442 Z M124.388222,26.1921865 L124.427529,26.19331 C124.778715,26.213439 125.057903,26.5015549 125.059455,26.8549086 L125.059455,26.8549086 L125.059455,27.5829597 L137.846471,27.5829597 L137.885797,27.5842301 C138.237095,27.605673 138.514944,27.8948584 138.514944,28.2482121 L138.514944,28.2482121 L138.514944,29.7268575 L138.513811,29.7658684 C138.49351,30.1143959 138.202931,30.391009 137.846471,30.3923399 L137.846471,30.3923399 L136.951187,30.3923399 L136.951187,34.4149085 L136.950002,34.4708776 C136.928721,34.9727134 136.622463,35.4212819 136.156427,35.6257967 L136.156427,35.6257967 L132.808772,37.1067424 L133.5152,37.4195858 L133.59088,37.4593813 L136.491813,38.760212 L137.849002,39.3631258 L138.436963,39.6134005 L138.477643,39.6332134 C138.623866,39.7105444 138.737117,39.8386786 138.794893,39.9938734 L138.794893,39.9938734 L138.810327,40.0404659 C138.855922,40.1970638 138.843033,40.3655005 138.77235,40.5139756 L138.77235,40.5139756 L138.242586,41.6970299 L138.224576,41.7342097 C138.059842,42.0496588 137.673837,42.18762 137.342011,42.0423079 L137.342011,42.0423079 L136.837551,41.8097456 L136.837551,41.8221673 L129.562331,38.5524932 L127.917372,39.2807743 L127.868418,39.311522 C127.835225,39.3312026 127.800976,39.3492472 127.766011,39.3656561 L127.766011,39.3656561 L120.563941,42.5426273 L120.52734,42.5578028 C120.1758,42.6940243 119.892708,42.5278441 119.892708,42.1725059 L119.892708,42.1725059 L119.880056,40.596327 L119.885417,40.5425488 C119.93385,40.1503795 120.181538,39.8085477 120.543928,39.638244 L120.543928,39.638244 L121.406318,39.2580012 L121.406318,39.2407488 L126.295417,37.0791385 L123.111775,35.6481098 L123.062702,35.6219222 C122.64345,35.3869402 122.382582,34.9455156 122.382804,34.4650555 L122.382804,34.4650555 L122.382804,30.3923399 L120.500682,30.3923399 L120.46138,30.3910695 C120.110272,30.3696263 119.832209,30.080433 119.832209,29.7268575 L119.832209,29.7268575 L119.832209,28.2482121 L119.833343,28.209225 C119.853659,27.8609037 120.144445,27.5842906 120.500682,27.5829597 L120.500682,27.5829597 L122.382804,27.5829597 L122.382804,26.8549086 L122.383938,26.8159717 C122.404254,26.4681104 122.695039,26.1921865 123.051277,26.1921865 L123.051277,26.1921865 L124.388222,26.1921865 Z M143.795788,7.82137504 L143.834395,7.82293827 C143.975083,7.83435267 144.105027,7.90773286 144.186842,8.02518334 L144.186842,8.02518334 L144.208893,8.0599621 C144.283709,8.19024884 144.291986,8.34943254 144.228938,8.48754756 L144.228938,8.48754756 L143.368618,11.2302185 L153.906842,11.2302185 L153.945187,11.2291644 C154.097899,11.2310855 154.241309,11.3060405 154.329641,11.4319565 L154.329641,11.4319565 L154.351802,11.4667974 C154.427005,11.5973287 154.435475,11.7569341 154.372427,11.8954709 L154.372427,11.8954709 L142.609513,41.9247615 L142.592175,41.9714251 C142.450754,42.3244494 142.115922,42.5671067 141.731021,42.590474 L141.731021,42.590474 L140.233053,42.590474 L140.194883,42.5910219 C140.042932,42.5871746 139.900993,42.5114847 139.813935,42.3862056 L139.813935,42.3862056 L139.791927,42.351546 C139.71721,42.2217089 139.708388,42.0630876 139.769539,41.9247615 L139.769539,41.9247615 L150.690075,14.0529405 L140.313794,14.0529405 L140.27562,14.0535902 C140.123642,14.0501325 139.981539,13.9746058 139.894906,13.8489022 L139.894906,13.8489022 L139.87297,13.8141372 C139.798569,13.6839485 139.790644,13.5253623 139.85327,13.3874581 L139.85327,13.3874581 L141.389654,8.48754756 L141.407077,8.44088517 C141.54916,8.08787903 141.884644,7.84544213 142.269986,7.82229516 L142.269986,7.82229516 L143.765884,7.82229516 C143.775775,7.82137504 143.785666,7.82137504 143.795788,7.82137504 L143.795788,7.82137504 Z M149.013372,30.4972345 L149.051194,30.4990745 C149.315349,30.5246116 149.564947,30.8112281 149.670344,31.0624229 L149.670344,31.0624229 L154.25419,41.9238414 L154.269208,41.9620292 C154.317989,42.1036146 154.297781,42.2609532 154.213015,42.3862056 L154.213015,42.3862056 L154.190524,42.4165284 C154.096275,42.5335678 153.951804,42.5989675 153.801257,42.590474 L153.801257,42.590474 L152.335034,42.590474 L152.285838,42.5859145 C151.910973,42.5416405 151.591177,42.2846083 151.465743,41.9213111 L151.465743,41.9213111 L147.884606,33.4004676 L147.874332,33.3669717 C147.772117,33.028954 147.793434,32.9325325 148.033436,32.1750874 L148.033436,32.1750874 L148.508912,30.9570682 C148.654753,30.6207616 148.835788,30.4972345 149.013372,30.4972345 L149.013372,30.4972345 Z M86.0706503,18.6193048 L86.1186264,18.6210386 C86.2777684,18.6325592 86.4281827,18.7011125 86.5415257,18.815292 L86.5415257,18.815292 L86.5742224,18.8505097 C86.6786096,18.971438 86.7365928,19.1267761 86.7365928,19.2880076 L86.7365928,19.2880076 L86.7365928,20.7820651 L86.7354625,20.8213452 C86.7152095,21.1722774 86.425335,21.450768 86.0706503,21.450768 L86.0706503,21.450768 L82.75612,21.450768 L82.75612,26.0330044 L86.0706503,26.0330044 L86.1097826,26.0341409 C86.4593856,26.0545021 86.7365928,26.3459136 86.7365928,26.7017073 L86.7365928,26.7017073 L86.7365928,28.1957648 L86.7354633,28.2350951 C86.7152254,28.5864873 86.4255568,28.8656672 86.0706503,28.866998 L86.0706503,28.866998 L82.75612,28.866998 L82.75612,37.3505762 L82.7569019,37.4157498 C82.7886487,38.6718623 83.7809591,39.6970348 85.0378069,39.7580906 L85.0378069,39.7580906 L86.0706503,39.7580906 L86.1097826,39.7592254 C86.4593856,39.7795567 86.7365928,40.0705563 86.7365928,40.4267935 L86.7365928,40.4267935 L86.7365928,41.920621 L86.7354625,41.9599003 C86.7152095,42.310817 86.425335,42.5890938 86.0706503,42.5890938 L86.0706503,42.5890938 L84.8142158,42.5890938 L84.786612,42.5909628 L84.7588069,42.5909628 L84.7588069,42.5909628 L84.7311743,42.5890938 L84.6473895,42.5818556 C81.972748,42.3292447 79.9243223,40.0675809 79.9363884,37.3606976 L79.9363884,37.3606976 L79.9363884,28.866998 L77.0363756,28.866998 L76.9882795,28.8652585 C76.8287556,28.8536999 76.6781322,28.7849185 76.56458,28.6703207 L76.56458,28.6703207 L76.5318894,28.6348061 C76.4275437,28.5129427 76.3698258,28.3572054 76.3706454,28.1957648 L76.3706454,28.1957648 L76.3706454,26.7017073 L76.3717845,26.6624501 C76.3920378,26.311709 76.6819128,26.0330044 77.0363756,26.0330044 L77.0363756,26.0330044 L79.9363884,26.0330044 L79.9363884,21.450768 L77.0363756,21.450768 L76.9883367,21.4492058 C76.8289856,21.4382037 76.6783622,21.3696504 76.5648101,21.2554709 L76.5648101,21.2554709 L76.5320622,21.2201334 C76.4275437,21.0988248 76.3698258,20.9432966 76.3706454,20.7820651 L76.3706454,20.7820651 L76.3706454,19.2880076 L76.3723769,19.2398435 C76.3838246,19.0800758 76.451948,18.9290532 76.5655002,18.815292 L76.5655002,18.815292 L76.6006387,18.7824183 C76.7212508,18.6774781 76.8757714,18.6193048 77.0363756,18.6193048 L77.0363756,18.6193048 L86.0706503,18.6193048 Z M190.999034,30.9713302 L191.037996,30.972606 C191.386096,30.9941436 191.662487,31.2846995 191.663596,31.6404932 L191.663596,31.6404932 L191.663596,33.1290299 L191.66235,33.1682326 C191.641113,33.5184393 191.351944,33.7954325 190.999034,33.7954325 L190.999034,33.7954325 L184.487059,33.7954325 L184.487059,36.5613366 L184.487836,36.6262537 C184.519392,37.8774223 185.506015,38.8985627 186.755174,38.9578095 L186.755174,38.9578095 L193.337309,38.9578095 L193.376891,38.9592867 C193.71734,38.9821376 193.987626,39.2637947 193.994055,39.6117903 L193.994055,39.6117903 L193.994055,41.0980267 L193.992519,41.1460818 C193.981694,41.3055385 193.914187,41.4567512 193.801053,41.5705123 L193.801053,41.5705123 L193.766102,41.6034432 C193.646116,41.7085563 193.492204,41.7667296 193.332018,41.7667296 L193.332018,41.7667296 L186.560107,41.7667296 L186.522723,41.7693368 C186.497743,41.7702056 186.472695,41.7693368 186.447852,41.7667296 L186.447852,41.7667296 L186.364599,41.7595572 C183.706942,41.5091122 181.671145,39.2552171 181.684223,36.5588063 L181.684223,36.5588063 L181.684223,31.6404932 L181.685583,31.6012394 C181.707213,31.2505577 181.995329,30.9726612 182.348682,30.9713302 L182.348682,30.9713302 L190.999034,30.9713302 Z M100.838932,21.9007105 L100.877844,21.9018391 C101.225483,21.9220603 101.501194,22.2114755 101.501194,22.5652728 L101.501194,22.5652728 L101.501194,24.7135412 L105.863979,24.7135412 L105.903038,24.7146733 C106.251976,24.7349573 106.528542,25.0252755 106.528542,25.3804038 L106.528542,25.3804038 L106.528542,26.9045955 L106.527295,26.943653 C106.506059,27.292576 106.216889,27.5689278 105.863979,27.5689278 L105.863979,27.5689278 L101.493832,27.5689278 L101.493832,30.24903 L101.596994,30.2580674 C104.987842,30.5592569 107.041154,31.1621831 107.051174,34.7530555 L107.051174,34.7530555 L107.050401,34.8726233 C106.999386,38.7956636 104.428835,40.47372 100.46881,40.47372 L100.46881,40.47372 L97.1039027,40.47372 L97.1039027,38.1775411 L100.143775,38.1927232 L100.221077,38.1925567 C102.710861,38.1817244 104.261347,37.6362267 104.261347,34.7530555 L104.261347,34.7530555 L104.260873,34.6666953 C104.229599,31.8505475 102.653378,32.3621034 100.143775,32.3621034 L97.1039027,32.3621034 L97.1039027,30.1837009 L98.6964139,30.1837009 L98.6955513,30.1638032 L98.6955513,30.1638032 L98.6964139,30.1439054 L98.6964139,27.5689278 L94.3262669,27.5689278 L94.2873274,27.5678009 C93.9394189,27.5476099 93.6628137,27.2586147 93.6617046,26.9045955 L93.6617046,26.9045955 L93.6617046,25.3804038 L93.663427,25.3323701 C93.6748716,25.1730518 93.7429687,25.0225995 93.8563117,24.9088383 L93.8563117,24.9088383 L93.8913925,24.8761362 C94.0118266,24.7717145 94.1662902,24.7135412 94.3262669,24.7135412 L94.3262669,24.7135412 L98.6964139,24.7135412 L98.6964139,22.5652728 L98.697539,22.5262373 C98.7176977,22.17749 99.0062176,21.9007105 99.3589059,21.9007105 L99.3589059,21.9007105 L100.838932,21.9007105 Z M95.5629187,29.9626402 L95.5629187,40.25772 L93.8015641,40.25772 L93.7641401,40.2565068 C93.4422819,40.2355762 93.1873788,39.9464698 93.1873788,39.5931577 L93.1873788,39.5931577 L93.1873788,30.6274326 L93.1884993,30.5869377 C93.2078292,30.2386609 93.4748335,29.9626402 93.8015641,29.9626402 L93.8015641,29.9626402 L95.5629187,29.9626402 Z M174.05373,31.0136561 L174.093852,31.015279 C174.187213,31.0228394 174.278241,31.0567296 174.355532,31.1151002 L174.355532,31.1151002 L174.385477,31.1395151 C174.500982,31.2413075 174.564667,31.391528 174.55681,31.5480203 L174.55681,31.5480203 L174.55681,33.0570299 L174.55327,33.104442 C174.515476,33.4813491 174.25199,33.7987357 173.886957,33.900097 L173.886957,33.900097 L160.540273,37.2486721 L160.500277,37.2607492 C160.35259,37.298725 160.1949,37.2675347 160.072388,37.1739117 L160.072388,37.1739117 L160.042505,37.1493008 C159.927275,37.0467871 159.864227,36.8965994 159.872721,36.7405315 L159.872721,36.7405315 L159.872721,35.2315219 L159.876333,35.1843274 C159.914634,34.8091322 160.176786,34.4927789 160.540273,34.3907551 L160.540273,34.3907551 L173.886957,31.0424101 C173.941245,31.0230874 173.997602,31.0136561 174.05373,31.0136561 L174.05373,31.0136561 Z M134.272005,30.3824485 L125.066586,30.3824485 L125.066586,31.1325826 L125.051634,33.6344101 L129.529206,35.6356881 L134.272005,33.5419373 L134.272005,30.3824485 Z M140.287484,15.3659054 L140.299072,15.366423 L141.7975,15.366423 L141.847408,15.3707725 C142.227666,15.4135887 142.55143,15.6726051 142.675762,16.0378862 L142.675762,16.0378862 L145.558753,22.7943846 L145.569296,22.8284888 C145.674183,23.172618 145.652052,23.2698822 145.406701,24.0335667 L145.406701,24.0335667 L144.918344,25.2676881 L144.897394,25.3138461 C144.516153,26.11973 143.915036,25.5866881 143.733679,25.1614134 L143.733679,25.1614134 L139.838088,16.0378862 L139.823138,15.9995217 C139.774641,15.8572744 139.795551,15.699145 139.881794,15.5736818 C139.971047,15.4430236 140.118727,15.3657329 140.276069,15.3657329 L140.276069,15.3657329 L140.287484,15.3659054 L140.287484,15.3659054 Z M129.976618,7.82137504 L130.0158,7.82250976 C130.365846,7.84284077 130.643481,8.13383236 130.643481,8.48984788 L130.643481,8.48984788 L130.643481,15.0648511 L138.170356,15.0648511 L138.209561,15.066131 C138.559798,15.087746 138.837219,15.3793951 138.837219,15.7358543 L138.837219,15.7358543 L138.837219,17.2269214 L138.836088,17.2662517 C138.815819,17.6176435 138.525707,17.8968155 138.170356,17.8979246 L138.170356,17.8979246 L130.643481,17.8979246 L130.643481,24.8616818 L130.642349,24.9009381 C130.622065,25.251664 130.331747,25.5301546 129.976618,25.5301546 L129.976618,25.5301546 L128.486932,25.5301546 L128.447749,25.529019 C128.097688,25.508673 127.819839,25.2174755 127.819839,24.8616818 L127.819839,24.8616818 L127.819839,17.8979246 L120.285602,17.8979246 L120.246298,17.8967863 C119.895144,17.8763922 119.61644,17.5844896 119.61644,17.2269214 L119.61644,17.2269214 L119.61644,15.7358543 L119.617576,15.6964052 C119.637938,15.3439834 119.929365,15.0648511 120.285602,15.0648511 L120.285602,15.0648511 L127.819839,15.0648511 L127.819839,8.48984788 L127.820972,8.45056863 C127.841271,8.09965178 128.131803,7.82137504 128.486932,7.82137504 L128.486932,7.82137504 L129.976618,7.82137504 Z M123.908606,19.4833048 L123.945949,19.4848778 C124.08201,19.4963654 124.207455,19.5702376 124.286318,19.6889533 L124.286318,19.6889533 L124.307564,19.7240727 C124.379644,19.8555939 124.387551,20.015867 124.327034,20.1554581 L124.327034,20.1554581 L123.045526,24.4237009 L123.028934,24.4710161 C122.89344,24.8289593 122.569245,25.0747488 122.196248,25.0972345 L122.196248,25.0972345 L120.753717,25.0972345 L120.716653,25.0980682 C120.569088,25.095235 120.431036,25.0190059 120.346101,24.8918159 L120.346101,24.8918159 L120.324745,24.8565726 C120.252278,24.7245667 120.244177,24.5635028 120.304695,24.4237009 L120.304695,24.4237009 L121.585973,20.1554581 L121.602675,20.1082315 C121.738977,19.7509845 122.063136,19.5062696 122.435251,19.4842249 L122.435251,19.4842249 L123.880082,19.4842249 C123.889743,19.4835348 123.899174,19.4833048 123.908606,19.4833048 L123.908606,19.4833048 Z M134.367382,19.483506 L134.38242,19.4842249 L135.902701,19.4842249 L135.951673,19.4879577 C136.341172,19.52708 136.674008,19.7868917 136.801206,20.1554581 L136.801206,20.1554581 L138.146893,24.423931 L138.162376,24.4623623 C138.212669,24.6048878 138.191864,24.7636498 138.104567,24.8897457 L138.104567,24.8897457 L138.081449,24.9203866 C137.984515,25.0386961 137.835324,25.105321 137.679468,25.0974645 L137.679468,25.0974645 L136.154356,25.0974645 L136.103536,25.0931377 C135.716338,25.0504513 135.387008,24.7905348 135.260912,24.423931 L135.260912,24.423931 L133.912465,20.1554581 L133.896877,20.1169122 C133.846237,19.9739693 133.867129,19.8148383 133.955481,19.6889533 L133.955481,19.6889533 L133.978817,19.65829 C134.068457,19.5498671 134.201845,19.486046 134.343545,19.4833048 L134.343545,19.4833048 L134.367382,19.483506 L134.367382,19.483506 Z M188.763123,18.5912409 L188.796119,18.5929159 C188.928723,18.6062378 189.06965,18.6980818 189.250561,18.8346147 L189.250561,18.8346147 L193.509372,21.5029853 L193.553982,21.5373238 C193.845095,21.7729301 194.00955,22.1402614 193.9929,22.5238671 L193.9929,22.5238671 L193.9929,24.5069725 L193.991977,24.5425601 C193.973596,24.889208 193.682987,24.9583397 193.329257,24.690538 L193.329257,24.690538 L187.715098,21.0866274 L187.675037,21.0557414 C187.335572,20.7892485 187.198505,20.5522632 187.379481,20.24126 L187.379481,20.24126 L188.3815,18.8346147 C188.5209,18.6630108 188.639596,18.5912409 188.763123,18.5912409 L188.763123,18.5912409 Z M194.097794,8.44085108 L194.120012,8.44133675 C194.484952,8.45720405 194.942586,8.86196596 194.373372,9.66991178 L194.373372,9.66991178 L182.817948,23.7577584 L182.779013,23.8099409 C182.512991,24.1518527 182.119319,24.3734554 181.68642,24.4220907 L181.68642,24.4220907 L179.432797,24.4220907 L179.398317,24.4211705 C179.062455,24.4028436 178.995291,24.1130465 179.23727,23.7577584 L179.23727,23.7577584 L189.443328,11.2433303 L180.634714,11.2433303 L180.595705,11.2422069 C180.24721,11.2220793 179.971072,10.9340031 179.971072,10.5817584 L179.971072,10.5817584 L179.971072,9.10288302 L179.972198,9.06399452 C179.992373,8.71656109 180.281139,8.44085108 180.634714,8.44085108 L180.634714,8.44085108 L194.097794,8.44085108 Z M178.209257,8.44085108 L178.209257,11.2440204 L176.86173,11.2440204 L176.86173,23.7577584 L176.860599,23.7966971 C176.840329,24.1445903 176.550193,24.4209816 176.194178,24.4220907 L176.194178,24.4220907 L174.690689,24.4220907 L174.642467,24.4203683 C174.482527,24.4089237 174.331504,24.3408267 174.217743,24.2274837 L174.217743,24.2274837 L174.184943,24.1924082 C174.080283,24.0720087 174.022718,23.9177352 174.023136,23.7577584 L174.023136,23.7577584 L174.023136,23.1104485 L160.971353,23.1104485 L160.932197,23.1092088 C160.582386,23.0880961 160.305132,22.8006694 160.303801,22.4486466 L160.303801,22.4486466 L160.303801,20.9723016 L160.305539,20.9245762 C160.317087,20.766269 160.385755,20.6166722 160.499098,20.5039565 L160.499098,20.5039565 L160.534419,20.4714422 C160.65562,20.3676426 160.81054,20.3100396 160.971353,20.3100396 L160.971353,20.3100396 L162.341424,20.3100396 L162.341424,11.2440204 L160.971353,11.2440204 L160.932146,11.2428962 C160.581863,11.222753 160.303801,10.9344549 160.303801,10.5819885 L160.303801,10.5819885 L160.303801,9.10288302 L160.304934,9.06399452 C160.325249,8.71656109 160.616003,8.44085108 160.971353,8.44085108 L160.971353,8.44085108 L178.209257,8.44085108 Z M174.023136,18.8261035 L165.167596,18.8261035 L165.167596,20.3052089 L174.023136,20.3052089 L174.023136,18.8261035 Z M106.418817,13.2554198 L93.9708676,13.2554198 L95.7612062,17.5227425 L104.486548,17.5227425 L106.418817,13.2554198 Z M174.023136,15.1163782 L165.167596,15.1163782 L165.167596,16.7054389 L174.023136,16.7054389 L174.023136,15.1163782 Z M182.440465,12.976161 L182.51957,12.9778684 C182.730601,12.9869838 182.941935,13.0326722 183.144363,13.1167105 L183.144363,13.1167105 L183.204262,13.1428492 C183.856195,13.4411863 184.276776,14.0934194 184.275664,14.8143463 L184.275664,14.8143463 L184.274712,14.8714665 C184.243222,15.8578394 183.433951,16.6474709 182.440005,16.6474709 L182.440005,16.6474709 L182.374683,16.6463145 C181.658393,16.6209326 181.019267,16.1796468 180.743979,15.5136434 L180.743979,15.5136434 L180.719368,15.4510077 C180.469778,14.7800572 180.63339,14.0218583 181.143085,13.5130556 C181.493884,13.1624869 181.963379,12.976161 182.440465,12.976161 L182.440465,12.976161 Z M80.9482989,7.821145 L80.9868352,7.82272195 C81.1272126,7.83423446 81.2563308,7.9082121 81.337513,8.02587344 L81.337513,8.02587344 L81.3591896,8.06063409 C81.4327382,8.19079197 81.440874,8.34920251 81.3784586,8.48731753 L81.3784586,8.48731753 L80.1224842,12.5430108 L86.0759411,12.5430108 L86.1148473,12.5444221 C86.4623801,12.5670703 86.7365928,12.8557803 86.7365928,13.2078032 L86.7365928,13.2078032 L86.7365928,14.6961099 L86.7354633,14.7352167 C86.7152257,15.0845828 86.425565,15.3613623 86.0708804,15.3613623 L86.0708804,15.3613623 L78.7183692,15.3613623 L78.668563,15.3713218 C78.6351487,15.376621 78.6013596,15.3792281 78.5674682,15.3790747 L78.5674682,15.3790747 L77.0879027,15.3790747 L77.0499328,15.3798758 C76.8987362,15.3769935 76.7569929,15.3016955 76.6699347,15.1764166 L76.6699347,15.1764166 L76.6479983,15.1415412 C76.573596,15.0109645 76.5656535,14.8521674 76.6280689,14.7140524 L76.6280689,14.7140524 L78.5598772,8.48731753 L78.5772053,8.44060232 C78.7184822,8.08722647 79.0515321,7.8452121 79.4342286,7.82206513 L79.4342286,7.82206513 L80.9211551,7.82206513 C80.9303564,7.82160507 80.9395577,7.821145 80.9482989,7.821145 L80.9482989,7.821145 Z M137.706842,8.037145 L137.746135,8.03873632 C137.889312,8.05035427 138.021487,8.12501721 138.104567,8.24394373 L138.104567,8.24394373 L138.126724,8.27895251 C138.201892,8.4100827 138.210133,8.57010986 138.146663,8.70906833 L138.146663,8.70906833 L136.800976,12.9773111 L136.783386,13.0245413 C136.639858,13.3818443 136.299047,13.6272664 135.907532,13.6510747 L135.907532,13.6510747 L134.387021,13.6510747 L134.347513,13.6520726 C134.190183,13.6497068 134.042592,13.5717137 133.953411,13.4419757 L133.953411,13.4419757 L133.932588,13.4088574 C133.855195,13.273772 133.848711,13.1088186 133.917296,12.9671897 L133.917296,12.9671897 L135.265513,8.70906833 L135.283264,8.66201055 C135.427936,8.30602799 135.767883,8.06187344 136.158957,8.03806513 L136.158957,8.03806513 L137.679238,8.03806513 C137.688209,8.03760507 137.697641,8.037145 137.706842,8.037145 L137.706842,8.037145 Z M120.738535,8.03754756 L120.750957,8.03806513 L122.193027,8.03806513 L122.241338,8.04227576 C122.60946,8.08406353 122.923542,8.34290539 123.043686,8.70906833 L123.043686,8.70906833 L124.327034,12.9777712 L124.341841,13.0163174 C124.389922,13.1592632 124.36982,13.3184293 124.286318,13.4447361 L124.286318,13.4447361 L124.264109,13.4754217 C124.171046,13.5938757 124.02847,13.6602229 123.879622,13.6513048 L123.879622,13.6513048 L122.435251,13.6513048 L122.386831,13.6470595 C122.017919,13.6049621 121.704075,13.3448159 121.584593,12.9777712 L121.584593,12.9777712 L120.303545,8.70906833 L120.289011,8.6705847 C120.241882,8.52788782 120.262388,8.36919612 120.346101,8.24394373 L120.346101,8.24394373 L120.368355,8.21321396 C120.45386,8.10451721 120.581309,8.04011625 120.716682,8.03737504 L120.716682,8.03737504 L120.738535,8.03754756 L120.738535,8.03754756 Z M165.167596,11.4740524 L165.167596,12.9984741 L174.023136,12.9984741 L174.023136,11.478883 L165.167596,11.4740524 Z" id="形状结合" fill="#3D3D3D" fill-rule="nonzero"></path>
                    <path d="M193.3305,25.9760715 C193.507164,25.9760715 193.676008,26.0466913 193.800685,26.1722888 C193.925132,26.2976562 193.994832,26.4681099 193.994152,26.6452345 L193.994152,28.182308 C193.994152,28.5503591 193.697171,28.8489405 193.3305,28.8489405 L179.176174,28.8489405 L179.176174,42.3681481 C179.176174,42.7364293 178.879663,43.0357008 178.512762,43.0373111 L177.030436,43.0373111 C176.663535,43.0357008 176.367024,42.7364293 176.367024,42.3681481 L176.367024,28.8489405 L161.183535,28.8489405 C160.816864,28.8489405 160.519893,28.5503591 160.519893,28.182308 L160.519893,26.6452345 C160.519893,26.2767233 160.816404,25.9774517 161.183535,25.9760715 L193.3305,25.9760715 Z M100.87408,8.03716801 C101.239141,8.03716801 101.534732,8.33505938 101.534732,8.7024204 L101.534732,10.4391616 L111.564585,10.4391616 C111.74056,10.4412319 111.908943,10.513922 112.03201,10.6408996 C112.155077,10.7683373 112.222707,10.9394811 112.22031,11.1170658 L112.22031,12.6030722 C112.218566,12.9706632 111.922055,13.2680945 111.556764,13.2680945 L109.288189,13.2680945 L107.433441,17.5756728 L107.984368,17.5756728 C110.1584,17.9133597 111.773454,19.7812191 111.806119,21.9959667 L111.806119,38.3742414 C111.779665,40.7948676 109.849697,42.7572702 107.445863,42.8071871 L106.169416,42.8071871 L106.169416,39.9881456 L107.445863,39.9881456 C107.866592,39.9865353 108.269148,39.8144714 108.563358,39.5108293 C108.857109,39.2076472 109.017441,38.7981903 109.00893,38.3742414 L109.00893,21.9959667 C109.016981,21.5614364 108.852048,21.1418581 108.550937,20.8306249 C108.249595,20.5193917 107.837378,20.3424971 107.406068,20.3390466 L92.8388344,20.3390466 C92.4070644,20.341807 91.994157,20.5184715 91.6923551,20.8297048 C91.4066554,21.1247752 91.2433837,21.5170861 91.2338343,21.9274238 L91.2336714,42.8071871 L88.4364829,42.8071871 L88.4364829,21.9959667 C88.4378631,19.8125035 90.0048407,17.9494747 92.1434478,17.5883246 C92.195665,17.5782032 92.7169174,17.5630211 92.7693647,17.5630211 L90.9369302,13.2556728 L88.6929685,13.2556728 C88.5176842,13.2556728 88.3497609,13.1855131 88.2260037,13.0608357 C88.1022465,12.9361584 88.0325468,12.7670849 88.0325468,12.5904204 L88.0325468,11.104414 C88.0325468,10.737053 88.3281379,10.4391616 88.6929685,10.4391616 L98.7301826,10.4391616 L98.7301826,8.7024204 C98.7301826,8.33505938 99.0260037,8.03716801 99.3908344,8.03716801 L100.87408,8.03716801 Z M174.356544,36.4864612 C174.491343,36.5885954 174.566333,36.7519181 174.556672,36.9214516 L174.556672,38.4304612 C174.536889,38.8272663 174.266602,39.1665635 173.886819,39.271458 L160.540135,42.6198031 C160.381643,42.6750107 160.206129,42.6469468 160.07225,42.5448127 C159.938372,42.4429085 159.863611,42.2805059 159.872813,42.1116625 L159.872813,40.6024229 C159.892365,40.2063079 160.161273,39.8674708 160.540135,39.7616561 L173.886819,36.4133111 C174.045541,36.3569532 174.221976,36.384327 174.356544,36.4864612 Z M124.388383,26.1920715 C124.757815,26.1920715 125.058006,26.4883527 125.059386,26.8550236 L125.059386,27.5828447 L137.846632,27.5828447 C138.216294,27.5842249 138.515105,27.8818862 138.515105,28.2483271 L138.515105,29.7269725 C138.515105,30.0934134 138.216294,30.3908447 137.846632,30.3922249 L136.951118,30.3922249 L136.951118,34.4147935 C136.951118,34.9390363 136.639655,35.4135922 136.156358,35.6256817 L132.808933,37.1066273 L133.515131,37.4194708 L133.591041,37.4594964 L136.491974,38.760097 L137.848933,39.3630107 L138.436894,39.6132855 C138.602978,39.6873558 138.732025,39.8244548 138.795054,39.9937583 C138.858083,40.1632919 138.850032,40.3505379 138.772281,40.5138606 L138.242517,41.6971449 C138.089546,42.0387424 137.68676,42.1930938 137.341942,42.0424229 L136.837482,41.8096305 L136.837482,41.8222823 L129.562262,38.5526082 L127.917533,39.2806593 C127.869457,39.3126337 127.81862,39.3411577 127.765942,39.3655411 L120.564102,42.5425123 C120.195591,42.705375 119.892869,42.540212 119.892869,42.1723909 L119.880217,40.596442 C119.911732,40.1819245 120.164997,39.8161737 120.543859,39.638359 L121.406479,39.2578861 L121.406479,39.2406337 L126.295348,37.0792535 L123.111936,35.6482248 C122.664064,35.4209532 122.382505,34.9638797 122.382735,34.4649404 L122.382735,30.3922249 L120.500843,30.3922249 C120.131412,30.3908447 119.832371,30.0934134 119.832371,29.7269725 L119.832371,28.2483271 C119.832371,27.8818862 120.131412,27.5842249 120.500843,27.5828447 L122.382735,27.5828447 L122.382735,26.8550236 C122.382735,26.4888127 122.682006,26.1920715 123.051208,26.1920715 L124.388383,26.1920715 Z M149.670275,31.0623079 L154.254351,41.9237264 C154.321291,42.0746273 154.305418,42.2496817 154.212946,42.3860906 C154.120473,42.5222695 153.964281,42.5997903 153.801188,42.590589 L152.334965,42.590589 C151.93908,42.5636753 151.596792,42.3005187 151.465904,41.921196 L147.884767,33.4003526 C147.770901,33.0346018 147.785853,32.957081 148.033367,32.1749724 L148.508843,30.9569532 C148.882645,30.0947936 149.4897,30.6312281 149.670275,31.0623079 Z M144.186773,8.02506833 C144.281546,8.16124724 144.297878,8.33676162 144.22909,8.48766258 L143.368549,11.2301035 L153.906773,11.2301035 C154.073776,11.2190619 154.234109,11.2956626 154.329572,11.4318415 C154.425035,11.5682504 154.441137,11.7444549 154.372358,11.8955859 L142.609444,41.9248765 C142.479706,42.3030491 142.132588,42.5659756 141.730952,42.590589 L140.232984,42.590589 C140.066901,42.5993302 139.908179,42.5220395 139.813866,42.3863206 C139.719323,42.2506018 139.70276,42.0757775 139.7697,41.9248765 L150.690236,14.0530556 L140.313955,14.0530556 C140.147642,14.0622568 139.98892,13.9849661 139.894837,13.8487872 C139.800754,13.7128383 139.784882,13.538014 139.853201,13.3873431 L141.389585,8.48766258 C141.520013,8.10926002 141.867821,7.8463335 142.270147,7.82218015 L143.765815,7.82218015 C143.932358,7.81182871 144.092,7.88888941 144.186773,8.02506833 Z M86.0706043,18.6193278 C86.2472689,18.6193278 86.4168024,18.6899476 86.5414797,18.8150849 C86.6663871,18.9404524 86.7367768,19.110676 86.7367768,19.2880306 L86.7367768,20.7818581 C86.7367768,21.1512894 86.4384254,21.450791 86.0706043,21.450791 L82.756074,21.450791 L82.756074,26.0330274 L86.0706043,26.0330274 C86.4384254,26.0330274 86.7367768,26.332529 86.7367768,26.7019603 L86.7367768,28.1957878 C86.7367768,28.5654492 86.4388855,28.8656409 86.0706043,28.8670211 L82.756074,28.8670211 L82.756074,37.3505992 C82.7544637,38.6362478 83.7592433,39.696005 85.0377609,39.7578836 L86.0706043,39.7578836 C86.4384254,39.7578836 86.7367768,40.0573852 86.7367768,40.4268165 L86.7367768,41.920644 C86.7367768,42.2898452 86.4384254,42.5891168 86.0706043,42.5891168 L84.8143999,42.5891168 L84.786336,42.5909571 C84.7679334,42.5916472 84.7495308,42.5909571 84.7311283,42.5891168 C82.0158312,42.3763373 79.9243807,40.0955705 79.9363423,37.3607206 L79.9363423,28.8670211 L77.0363296,28.8670211 C76.859435,28.8670211 76.6894414,28.7961712 76.564534,28.6701137 C76.4396267,28.5440562 76.369927,28.3733725 76.370607,28.1957878 L76.370607,26.7019603 C76.370607,26.332529 76.6685085,26.0330274 77.0363296,26.0330274 L79.9363423,26.0330274 L79.9363423,21.450791 L77.0363296,21.450791 C76.859665,21.4512511 76.6896714,21.3810913 76.5647641,21.2554939 C76.4396267,21.1298964 76.369927,20.9594428 76.370607,20.7818581 L76.370607,19.2880306 C76.370607,19.110676 76.4405468,18.9404524 76.5654542,18.8150849 C76.6903615,18.6899476 76.859665,18.6193278 77.0363296,18.6193278 L86.0706043,18.6193278 Z M190.999126,30.9714452 C191.365337,30.9728254 191.662308,31.2716369 191.663688,31.6403781 L191.663688,33.1291449 C191.662308,33.4974261 191.365107,33.7953174 190.999126,33.7953174 L184.487151,33.7953174 L184.487151,36.5614516 C184.485541,37.8420395 185.48457,38.8974261 186.755266,38.9579245 L193.337171,38.9579245 C193.69602,38.9604548 193.987241,39.2505251 193.994152,39.6116753 L193.994152,41.0979117 C193.994832,41.2750363 193.925362,41.4452599 193.801145,41.5706273 C193.676928,41.6962248 193.508084,41.7668446 193.33211,41.7668446 L186.560199,41.7668446 C186.522934,41.7705251 186.485209,41.7705251 186.447944,41.7668446 C183.749669,41.5559053 181.67087,39.2834197 181.684085,36.5589213 L181.684085,31.6403781 C181.685822,31.2716369 181.982333,30.9728254 182.348774,30.9714452 L190.999126,30.9714452 Z M100.838886,21.9009635 C101.204636,21.9009635 101.501378,22.1983949 101.501378,22.5652958 L101.501378,24.7135642 L105.863703,24.7135642 C106.231064,24.7135642 106.528726,25.0121457 106.528726,25.3804268 L106.528726,26.9046185 C106.527346,27.2717495 106.229914,27.5687207 105.863703,27.5687207 L101.493786,27.5687207 L101.493786,30.249053 C104.946106,30.5471744 107.041237,31.1259347 107.051358,34.7533085 C107.051358,38.7616152 104.46879,40.473743 100.468764,40.473743 L97.1038567,40.473743 L97.1038567,38.1775641 L100.143729,38.1927462 C102.678911,38.1927462 104.261301,37.6662031 104.261301,34.7533085 C104.261301,31.8404139 102.678911,32.3621264 100.143729,32.3621264 L97.1038567,32.3621264 L97.1038567,30.1837239 L98.6963679,30.1837239 C98.6952177,30.1706121 98.6952177,30.1570402 98.6963679,30.1439284 L98.6963679,27.5687207 L94.326451,27.5687207 C93.9602401,27.5687207 93.6628088,27.2717495 93.6616586,26.9046185 L93.6616586,25.3804268 C93.6616586,25.2035322 93.7315884,25.0339987 93.8562657,24.9088613 C93.980943,24.783954 94.1502465,24.7135642 94.326451,24.7135642 L98.6963679,24.7135642 L98.6963679,22.5652958 C98.6963679,22.1983949 98.9931091,21.9009635 99.3588599,21.9009635 L100.838886,21.9009635 Z M95.5628727,29.9626632 L95.5628727,40.257743 L93.8015181,40.257743 C93.4622209,40.257743 93.1873328,39.9600817 93.1873328,39.5931807 L93.1873328,30.6274556 C93.1873328,30.2603246 93.4622209,29.9626632 93.8015181,29.9626632 L95.5628727,29.9626632 Z M174.355624,31.1149852 C174.489963,31.2161992 174.565413,31.3786018 174.556902,31.5479053 L174.556902,33.0569149 C174.537349,33.4544101 174.267292,33.7943973 173.887049,33.900212 L160.540135,37.2487871 C160.381643,37.3039948 160.206129,37.2759309 160.07225,37.1740267 C159.938372,37.0718925 159.863611,36.90949 159.872813,36.7406465 L159.872813,35.2314069 C159.893055,34.8357519 160.161733,34.4971449 160.540135,34.3906401 L173.887049,31.0422951 C174.045311,30.9861673 174.221055,31.0133111 174.355624,31.1149852 Z M134.272166,30.3823335 L125.066748,30.3823335 L125.066748,31.1326976 L125.051795,33.6342951 L129.529367,35.635573 L134.272166,33.5418222 L134.272166,30.3823335 Z M140.261048,15.3660779 L140.299003,15.366308 L141.797431,15.366308 C142.199067,15.3911514 142.545955,15.6566083 142.675923,16.0380012 L145.558684,22.7942696 C145.67531,23.1669214 145.659898,23.2453623 145.406863,24.0336818 L144.918505,25.2678032 C144.538492,26.1396242 143.918556,25.5946786 143.73361,25.1612984 L139.838249,16.0380012 C139.77154,15.8861802 139.787872,15.7104357 139.881725,15.5735667 C139.960944,15.4579491 140.086279,15.384 140.223308,15.3687211 L140.261048,15.3660779 Z M129.976779,7.82126002 C130.344831,7.82126002 130.643642,8.12053159 130.643642,8.48973286 L130.643642,15.0647361 L138.170287,15.0647361 C138.538799,15.0661163 138.83715,15.3660779 138.83715,15.7357393 L138.83715,17.2270364 C138.83715,17.5964677 138.538799,17.8966594 138.170287,17.8980396 L130.643642,17.8980396 L130.643642,24.8615667 C130.643642,25.230768 130.344831,25.5300396 129.976779,25.5300396 L128.486863,25.5300396 C128.118811,25.5300396 127.82,25.230768 127.82,24.8615667 L127.82,17.8980396 L120.285763,17.8980396 C119.916102,17.8980396 119.616601,17.5976179 119.616601,17.2270364 L119.616601,15.7357393 C119.616601,15.3651578 119.916102,15.0647361 120.285763,15.0647361 L127.82,15.0647361 L127.82,8.48973286 C127.82,8.12053159 128.118811,7.82126002 128.486863,7.82126002 L129.976779,7.82126002 Z M124.286249,19.6888383 C124.377802,19.8261674 124.393214,20.0030619 124.326965,20.1553431 L123.045687,24.4235859 C122.9217,24.8070492 122.585393,25.0736562 122.196179,25.0973495 L120.753878,25.0973495 C120.592626,25.1077009 120.438045,25.0297201 120.346032,24.8917009 C120.254479,24.7539118 120.238837,24.5763271 120.304856,24.4235859 L121.586134,20.1553431 C121.710811,19.7728 122.046888,19.5071131 122.435182,19.4841099 L123.880243,19.4841099 C124.040805,19.4737584 124.194926,19.5512792 124.286249,19.6888383 Z M134.343767,19.4832683 L134.382581,19.4841099 L135.902632,19.4841099 C136.31324,19.5057329 136.668639,19.7714198 136.801367,20.1553431 L138.146824,24.4238159 C138.215834,24.5758671 138.199732,24.7523016 138.104498,24.8896306 C138.009265,25.0271897 137.848243,25.1060907 137.679399,25.0975795 L136.154287,25.0975795 C135.745521,25.0727361 135.392422,24.8063591 135.260843,24.4238159 L133.912626,20.1553431 C133.842926,20.0030619 133.859259,19.8261674 133.955642,19.6888383 C134.044399,19.5618607 134.189213,19.48604 134.343767,19.4832683 Z M189.250653,18.8347297 L193.509234,21.5028703 C193.828289,21.7361226 194.010474,22.1209661 193.992992,22.5239821 L193.992992,24.5068575 C193.992992,24.8843399 193.69487,24.9671514 193.329119,24.690423 L187.71496,21.0865124 C187.346678,20.8072536 187.191637,20.5643399 187.379343,20.241145 L188.381362,18.8347297 C188.682014,18.4652984 188.884902,18.5582313 189.250653,18.8347297 Z M178.209349,8.44096609 L178.209349,11.2439054 L176.861592,11.2439054 L176.861592,23.7576434 C176.861592,24.1236242 176.563241,24.4208255 176.19427,24.4222057 L174.690781,24.4222057 C174.513196,24.4222057 174.342972,24.352046 174.217835,24.2273687 C174.092468,24.1026913 174.022538,23.9336179 174.022998,23.7576434 L174.022998,23.1105635 L160.971445,23.1105635 C160.603394,23.1091834 160.305273,22.8135923 160.303893,22.4485316 L160.303893,20.9721865 C160.303893,20.7964421 160.374282,20.6280588 160.49919,20.5040715 C160.624557,20.3798543 160.794551,20.3099246 160.971445,20.3099246 L162.341516,20.3099246 L162.341516,11.2439054 L160.971445,11.2439054 C160.602934,11.2439054 160.303893,10.9476242 160.303893,10.5818734 L160.303893,9.10276801 C160.303893,8.73747727 160.602934,8.44096609 160.971445,8.44096609 L178.209349,8.44096609 Z M194.097886,8.44096609 C194.466167,8.44096609 194.954295,8.84559229 194.373464,9.66979676 L182.81804,23.7576434 C182.552353,24.129375 182.140825,24.3709086 181.686282,24.4222057 L179.432889,24.4222057 C179.067139,24.4222057 178.987087,24.1247744 179.237362,23.7576434 L189.44342,11.2434453 L180.634806,11.2434453 C180.268135,11.2434453 179.971164,10.9471642 179.971164,10.5816434 L179.971164,9.10276801 C179.971164,8.73747727 180.268135,8.44096609 180.634806,8.44096609 L194.097886,8.44096609 Z M174.022998,18.8259885 L165.167458,18.8259885 L165.167458,20.3050939 L174.022998,20.3050939 L174.022998,18.8259885 Z M106.418771,13.2556728 L93.9708216,13.2556728 L95.7609302,17.5227655 L104.486502,17.5227655 L106.418771,13.2556728 Z M174.022998,15.1162632 L165.167458,15.1162632 L165.167458,16.7053239 L174.022998,16.7053239 L174.022998,15.1162632 Z M183.144455,13.1168255 C183.83018,13.4016051 184.276902,14.0716881 184.275756,14.8144613 C184.274372,15.827292 183.453158,16.6473559 182.440097,16.6473559 C181.697554,16.6473559 181.027931,16.1999437 180.743841,15.5137584 C180.459982,14.8275731 180.617324,14.0378734 181.143177,13.5129405 C181.66857,12.9882377 182.4585,12.8315859 183.144455,13.1168255 Z M81.3372369,8.02589644 C81.4308599,8.16184532 81.4465021,8.33666961 81.3784126,8.4871105 L80.1224382,12.5428038 L86.0758951,12.5428038 C86.4416459,12.5457942 86.7367768,12.8427655 86.7367768,13.2080562 L86.7367768,14.6961329 C86.7367768,15.0637239 86.4386554,15.3613853 86.0708344,15.3613853 L78.7183232,15.3613853 C78.6690963,15.373577 78.6182593,15.3793278 78.5674222,15.3788677 L77.0880868,15.3788677 C76.9226938,15.3892191 76.7639717,15.3121584 76.6698887,15.1762095 C76.5758056,15.0400306 76.5601634,14.8647463 76.6282529,14.7138453 L78.5598312,8.4871105 C78.6897992,8.10893798 79.0348471,7.84624149 79.4341826,7.8218581 L80.9213391,7.8218581 C81.0862721,7.81242679 81.2438439,7.88994756 81.3372369,8.02589644 Z M138.104498,8.24382871 C138.199962,8.38092775 138.215834,8.55736226 138.146594,8.70895331 L136.801137,12.9771961 C136.669329,13.3599693 136.31623,13.6261163 135.907463,13.6511897 L134.387182,13.6511897 C134.215118,13.6624613 134.050185,13.5826402 133.953572,13.4420907 C133.856958,13.3013111 133.842926,13.120506 133.917457,12.9670747 L135.265444,8.70895331 C135.398402,8.32779037 135.751041,8.0630236 136.159118,8.03772008 L137.679169,8.03772008 C137.847553,8.02828877 138.009035,8.10649964 138.104498,8.24382871 Z M120.71404,8.03722966 L120.750888,8.03772008 L122.193188,8.03772008 C122.581942,8.06164341 122.918249,8.32687024 123.043847,8.70895331 L124.327195,12.9776562 C124.393214,13.1299373 124.377572,13.3070619 124.286249,13.4446211 C124.194926,13.5824102 124.040805,13.6608511 123.879783,13.6514198 L122.435182,13.6514198 C122.045738,13.6272664 121.709201,13.3606594 121.584524,12.9776562 L120.303476,8.70895331 C120.238837,8.55690219 120.254939,8.38069772 120.346032,8.24382871 C120.43033,8.11748809 120.567352,8.04132437 120.71404,8.03722966 Z M165.167458,11.4739373 L165.167458,12.9983591 L174.022998,12.9983591 L174.022998,11.478998 L165.167458,11.4739373 Z" id="形状结合" stroke="#3D3D3D" stroke-width="0.736484089"></path>
                    <path d="M89.1180575,66.5441022 C90.5534569,66.5441022 92.0127796,66.0656358 92.9218658,64.6541597 L93.1132524,66.2809457 L95.8405112,66.2809457 L95.8405112,49.5585431 L92.9218658,49.5585431 L92.9218658,56.0896102 C92.2280895,54.8695208 90.2903003,54.1996677 89.0462875,54.1996677 C85.6013291,54.1996677 83.0415335,56.3049201 83.0415335,60.371885 C83.0415335,64.2474633 85.6491757,66.5441022 89.1180575,66.5441022 Z M89.3094441,63.8407668 C87.4434249,63.8407668 85.9601789,62.4292907 85.9601789,60.371885 C85.9601789,58.2427093 87.4434249,56.9269265 89.3094441,56.9269265 C91.1515399,56.9269265 92.7304792,58.3144792 92.7304792,60.371885 C92.7304792,62.5010607 91.1515399,63.8407668 89.3094441,63.8407668 Z M103.071335,71.2091502 L110.272256,54.4867476 L107.042607,54.4867476 L104.889508,59.6541853 L103.669419,62.9077572 L102.545022,59.5824153 L100.750773,54.4867476 L97.3536613,54.4867476 L102.066556,66.0895591 L99.8656102,71.2091502 L103.071335,71.2091502 Z M117.335617,66.5441022 C118.771016,66.5441022 120.230339,66.0656358 121.139425,64.6541597 L121.330812,66.2809457 L124.05807,66.2809457 L124.05807,49.5585431 L121.139425,49.5585431 L121.139425,56.0896102 C120.445649,54.8695208 118.507859,54.1996677 117.263847,54.1996677 C113.818888,54.1996677 111.259093,56.3049201 111.259093,60.371885 C111.259093,64.2474633 113.866735,66.5441022 117.335617,66.5441022 Z M117.527003,63.8407668 C115.660984,63.8407668 114.177738,62.4292907 114.177738,60.371885 C114.177738,58.2427093 115.660984,56.9269265 117.527003,56.9269265 C119.369099,56.9269265 120.948038,58.3144792 120.948038,60.371885 C120.948038,62.5010607 119.369099,63.8407668 117.527003,63.8407668 Z M132.030518,66.6397955 C133.3463,66.6158722 135.188396,65.9460192 135.858249,64.5584665 L136.001789,66.2809457 L138.752971,66.2809457 L138.752971,54.4867476 L135.953942,54.4867476 L135.858249,56.1135335 C135.188396,54.9412907 133.681227,54.1996677 132.102288,54.1996677 C128.657329,54.1757444 125.953994,56.3049201 125.953994,60.371885 C125.953994,64.5106198 128.537712,66.6637188 132.030518,66.6397955 Z M132.365444,63.9603834 C130.427655,63.9603834 128.872639,62.6206773 128.872639,60.371885 C128.872639,58.1230927 130.427655,56.8073099 132.365444,56.8073099 C136.958722,56.8073099 136.958722,63.9603834 132.365444,63.9603834 Z M146.151259,66.4244856 C147.036422,66.4005623 147.730198,66.2570224 148.567514,65.9220958 L147.754121,63.4340703 C147.323502,63.6493802 146.797188,63.7929201 146.342645,63.7929201 C145.433559,63.7929201 144.811553,63.2426837 144.811553,62.1182875 L144.811553,57.0226198 L148.089048,57.0226198 L148.089048,54.5106709 L144.835476,54.5106709 L144.835476,51.1614058 L141.916831,51.4724089 L141.916831,54.5106709 L139.715885,54.5106709 L139.715885,57.0226198 L141.916831,57.0226198 L141.916831,62.1182875 C141.916831,65.0608562 143.591463,66.5201789 146.151259,66.4244856 Z M155.702645,66.6397955 C157.018428,66.6158722 158.860524,65.9460192 159.530377,64.5584665 L159.673917,66.2809457 L162.425099,66.2809457 L162.425099,54.4867476 L159.62607,54.4867476 L159.530377,56.1135335 C158.860524,54.9412907 157.353355,54.1996677 155.774415,54.1996677 C152.329457,54.1757444 149.626121,56.3049201 149.626121,60.371885 C149.626121,64.5106198 152.20984,66.6637188 155.702645,66.6397955 Z M156.037572,63.9603834 C154.099783,63.9603834 152.544767,62.6206773 152.544767,60.371885 C152.544767,58.1230927 154.099783,56.8073099 156.037572,56.8073099 C160.63085,56.8073099 160.63085,63.9603834 156.037572,63.9603834 Z M168.268371,64.7737764 C168.268371,62.5010607 164.823412,62.5010607 164.823412,64.7737764 C164.823412,67.046492 168.268371,67.046492 168.268371,64.7737764 Z M170.42745,51.1614058 C170.42745,53.4341214 173.872409,53.4341214 173.872409,51.1614058 C173.872409,48.8886901 170.42745,48.8886901 170.42745,51.1614058 Z M173.609252,66.2809457 L173.609252,54.438901 L170.690607,54.438901 L170.690607,66.2809457 L173.609252,66.2809457 Z M182.084089,66.5441022 C185.911821,66.5441022 188.232383,63.7929201 188.232383,60.3958083 C188.232383,57.0226198 185.816128,54.2475144 182.060166,54.2475144 C178.304204,54.2475144 175.959719,57.0226198 175.959719,60.3958083 C175.959719,63.7929201 178.256358,66.5441022 182.084089,66.5441022 Z M182.084089,63.8646901 C179.954914,63.8646901 178.878364,62.1900575 178.878364,60.3958083 C178.878364,58.6254824 179.978837,56.9030032 182.084089,56.9030032 C184.045802,56.9030032 185.289815,58.6254824 185.289815,60.3958083 C185.289815,62.1900575 184.213265,63.8646901 182.084089,63.8646901 Z" id="dydata.io" fill="#3D3D3D" fill-rule="nonzero"></path>
                    <g id="左侧叶子" fill-rule="nonzero">
                        <path d="M1.04606419e-13,45.3445879 C5.21252396,63.129278 22.7556805,74.3345942 41.083476,71.5852524 L41.083476,71.5852524 L41.090377,71.5852524 C30.369738,68.6755783 21.2372396,61.639131 15.6893291,52.0155144 L15.6893291,52.0155144 C14.2944153,49.6123706 13.1458658,47.0739681 12.261623,44.4396422 L12.261623,44.4396422 C11.123655,44.3352077 9.98315655,44.2829904 8.84380831,44.2829904 L8.84380831,44.2829904 C5.86811502,44.2829904 2.89886262,44.6383898 1.04606419e-13,45.3445879 L1.04606419e-13,45.3445879 Z" id="Clip-23" fill="#16949B"></path>
                        <path d="M28.6539297,22.3400128 C44.2392843,32.4292141 51.3907476,51.5257764 46.2667859,69.3709649 L46.2667859,69.3709649 C56.2460319,60.9373035 61.9972907,48.5312204 61.9835384,35.4654058 L61.9835384,35.4654058 C61.9945304,21.5289201 55.4597827,8.3966262 44.3365879,-6.5379012e-15 L44.3365879,-6.5379012e-15 C36.8994249,5.6217508 31.4143131,13.435476 28.6539297,22.3400128 L28.6539297,22.3400128 Z" id="Clip-25" fill="#5EB659"></path>
                        <g id="Clip-27" transform="translate(12.651757, 19.322684)" fill="#14A477">
                            <path d="M2.6812524,25.5487284 C3.44472843,27.5334441 4.36163578,29.455361 5.42369329,31.2974569 L5.42369329,31.2974569 C10.6279361,40.3094185 19.1904153,46.8927029 29.2372907,49.6056997 L29.2372907,49.6056997 C29.7272588,49.7499297 30.2452907,49.8734569 30.7559617,49.9933035 L30.7559617,49.9933035 C30.8210607,49.7842045 30.8758083,49.571885 30.9340064,49.3625559 L30.9340064,49.3625559 C35.5155527,33.5255463 29.7488818,16.5105431 16.4820192,6.72268371 L16.4820192,6.72268371 C16.0739425,6.41099042 15.652524,6.11263898 15.220754,5.83499042 L15.220754,5.83499042 C11.174722,3.07506709 6.64700319,1.09817252 1.87223003,0.00759105431 L1.87223003,0.00759105431 C-0.694926518,8.37569329 -0.410607029,17.3598211 2.6812524,25.5487284 L2.6812524,25.5487284 Z" id="path-1"></path>
                        </g>
                    </g>
                </g>
            </g>
        </g>
    </g>
</svg>