<?xml version="1.0" encoding="UTF-8"?>
<svg width="26px" height="26px" viewBox="0 0 26 26" version="1.1" xmlns="http://www.w3.org/2000/svg" xmlns:xlink="http://www.w3.org/1999/xlink">
    <title>查看数据</title>
    <g id="页面-1" stroke="none" stroke-width="1" fill="none" fill-rule="evenodd">
        <g id="查询数据" transform="translate(-559.000000, -262.000000)" fill="#00A370" fill-rule="nonzero">
            <g id="Group" transform="translate(541.000000, 245.000000)">
                <g id="excel" transform="translate(18.000000, 17.000000)">
                    <path d="M15.886,3.367 L15.886,5.07 L23.751,5.07 L23.751,6.162 L15.886,6.162 L15.886,7.93 L23.751,7.93 L23.751,9.022 L15.886,9.022 L15.886,10.764 L23.751,10.764 L23.751,11.856 L15.886,11.856 L15.886,13.598 L23.751,13.598 L23.751,14.69 L15.886,14.69 L15.886,16.432 L23.751,16.432 L23.751,17.524 L15.886,17.524 L15.886,19.253 L23.751,19.253 L23.751,20.345 L15.886,20.345 L15.886,22.607 L26,22.607 L26,3.367 L15.886,3.367 L15.886,3.367 Z M0,23.231 L14.651,26 L14.651,0 L0,2.769 L0,23.231 Z M5.275,17.36 L3,17.36 L6.003,12.589 L3.143,8 L5.483,8 L7.147,11.042 L8.863,8 L11.125,8 L8.265,12.511 L11.307,17.36 L8.928,17.36 L7.147,14.175 L5.275,17.36 Z" id="查看数据"></path>
                </g>
            </g>
        </g>
    </g>
</svg>