<?xml version="1.0" encoding="UTF-8"?>
<svg width="40px" height="40px" viewBox="0 0 40 40" version="1.1" xmlns="http://www.w3.org/2000/svg" xmlns:xlink="http://www.w3.org/1999/xlink">
    <!-- Generator: Sketch 56 (81588) - https://sketch.com -->
    <title>转发</title>
    <desc>Created with Sketch.</desc>
    <g id="转发" stroke="none" stroke-width="1" fill="none" fill-rule="evenodd">
        <g id="zhuanfa-2" transform="translate(4.000000, 4.000000)" fill="#8759F0">
            <path d="M30.2717265,14.3489166 C29.3446427,14.3489166 28.5930929,15.1004664 28.5930929,16.0275502 L28.5930929,17.4705311 C28.5930929,20.5623024 28.5930929,23.6540736 28.5901126,26.7458448 C28.5901126,26.9801151 28.5856422,27.2054324 28.5394481,27.3941916 C28.2898511,28.4155803 27.4151436,28.6311985 26.7252126,28.6326907 C19.9734251,28.6476124 13.2216375,28.661788 6.46910489,28.661788 L4.97077728,28.661788 C4.70851405,28.661788 4.40899754,28.5886718 4.16759618,28.465568 C3.58867995,28.1701188 3.32045621,27.6754652 3.32194632,26.907745 L3.33461243,22.4983898 C3.3510039,16.8378521 3.36888548,10.9848248 3.35249401,5.22729617 C3.3510039,4.70056101 3.53801543,4.22157521 3.8800007,3.8783767 C4.21528037,3.54114684 4.68020152,3.35611803 5.21515888,3.35611803 C7.92943411,3.38819965 10.6429643,3.38297705 13.3579845,3.37700839 C13.8667167,3.37559723 14.7317853,3.37431118 15.9531903,3.37315025 C16.8821005,3.37230173 17.634663,2.61902352 17.634663,1.69011294 C17.634663,0.761350669 16.8817524,0.00844008743 15.9529902,0.00844008743 L12.51606,0.00844008743 C9.99177661,0.00844008743 7.46749324,0.00993224044 4.94320982,0.0144087432 C4.62879201,0.0151548415 4.29500246,0.0606659235 3.94929187,0.150942077 C1.70664338,0.732887432 0.0145986357,3.01664992 0.0131085184,5.46231257 C0.00863812278,12.6530681 0.00863812278,19.8430776 0.0131085184,27.0330871 C0.0153437162,29.8092649 2.19168131,31.9863374 4.96854208,31.9878295 L13.7178514,31.9908139 C17.9699427,31.9908139 22.222034,31.9885756 26.4733803,31.982607 C26.9345761,31.9818609 27.4121634,31.9221742 27.8569677,31.8095155 C29.8880175,31.2939716 32.0427482,29.4198091 31.9719669,26.5235119 C31.9344772,24.9449845 31.925123,21.4461049 31.9439043,16.026873 C31.9470781,15.1033693 31.2010251,14.3521272 30.2775216,14.3489266 C30.2755899,14.3489199 30.2736582,14.3489166 30.2717265,14.3489166 Z" id="路径"></path>
            <path d="M22.6124486,3.36880144 L22.7674223,3.3702936 C22.8739667,3.3702936 22.9805112,3.36805534 23.0870556,3.36581709 C23.1854043,3.36357884 23.283753,3.36134059 23.3821017,3.36134059 L25.9399131,3.36059449 C20.87719,8.19372529 15.8159571,13.0283482 10.7547242,17.8629712 L10.6891584,17.9256422 C10.5818689,18.0271096 10.4753245,18.128577 10.3747406,18.235267 C9.93366151,18.6993311 9.80625524,19.2872452 10.0163638,19.8885887 C10.2249823,20.4876939 10.696609,20.8741654 11.3440713,20.9763788 C11.4394398,20.9913005 11.532573,20.9987614 11.6219809,20.9987614 C12.2530518,20.9987614 12.6859351,20.6540706 12.9571391,20.3951796 C17.8000677,15.7634914 22.6459766,11.1355337 27.4918854,6.50832201 L28.5722311,5.47723423 L28.5744663,5.84953005 C28.5796817,6.99178435 28.5848972,8.13329255 28.5953281,9.2755468 C28.6042689,10.3163337 29.305376,11.0721165 30.3052545,11.0721165 C30.3052545,11.0721165 30.3059995,11.0721165 30.3067446,11.0721165 C31.2738402,11.0504801 31.949615,10.3081267 31.9503601,9.26883204 C31.9517708,6.77168962 31.9525953,4.27603934 31.9503601,1.77964297 C31.9488699,0.724680481 31.2418023,0.0144087432 30.1897693,0.0129165464 C27.6721914,0.00844004372 25.1546137,0.00844004372 22.6370358,0.0129165464 C22.1467824,0.0136626448 21.6982527,0.19570706 21.373404,0.523983956 C21.0642016,0.838085246 20.8965618,1.2588765 20.9017772,1.70951108 C20.9129531,2.6451002 21.6319418,3.34343462 22.6124486,3.36880144 Z" id="路径"></path>
        </g>
    </g>
</svg>