<?xml version="1.0" encoding="utf-8"?>
<!-- Generator: Adobe Illustrator 17.0.0, SVG Export Plug-In . SVG Version: 6.00 Build 0)  -->
<!DOCTYPE svg PUBLIC "-//W3C//DTD SVG 1.1//EN" "http://www.w3.org/Graphics/SVG/1.1/DTD/svg11.dtd">
<svg version="1.1" id="图层_1" xmlns="http://www.w3.org/2000/svg" xmlns:xlink="http://www.w3.org/1999/xlink" x="0px" y="0px"
	 width="221.508px" height="84.61px" viewBox="0 0 221.508 84.61" enable-background="new 0 0 221.508 84.61" xml:space="preserve">
<g>
	<linearGradient id="SVGID_1_" gradientUnits="userSpaceOnUse" x1="36.5413" y1="83.7446" x2="36.5413" y2="26.8155">
		<stop  offset="0" style="stop-color:#BF479A"/>
		<stop  offset="0.0452" style="stop-color:#B2489A"/>
		<stop  offset="0.1734" style="stop-color:#91499A"/>
		<stop  offset="0.3016" style="stop-color:#75499B"/>
		<stop  offset="0.4276" style="stop-color:#5D4A9B"/>
		<stop  offset="0.5508" style="stop-color:#494A9B"/>
		<stop  offset="0.6698" style="stop-color:#3B4A9B"/>
		<stop  offset="0.7802" style="stop-color:#364A9B"/>
	</linearGradient>
	<path fill="url(#SVGID_1_)" d="M1.777,17.726c0,0,0.747,10.431,9.901,18.02c4.474,3.71,14.779,8.57,29.182,10.496
		c0,0,30.171,5.586,32.098,14.492c0.817,4.311-2.219,9.812-13.303,15.933C42.918,85.318,18.202,87.55,7.37,67.609
		C-3.718,44.882,0.698,22.354,1.777,17.726z"/>
	<g>
		<g>
			<g>
				<path fill="#364A9B" d="M103.242,6.842h8.149l-0.54,2.625h-9.336c-1.356,2.302-3.538,5.734-5.878,6.941l-4.186-2.037
					c1.246-2.186,2.234-4.328,2.97-6.422c0.736-2.093,1.368-4.46,1.896-7.101h8.206C104.257,2.245,103.583,5.561,103.242,6.842z
					 M105.809,19.489l0.013,8.009h5.942l-0.545,2.627h-5.397l0.022,10.873c-0.037,0.905,0.123,1.452,0.481,1.641
					c0.358,0.189,0.878,0.283,1.557,0.283h2.258l-0.583,2.625h-5.942c-2.754,0-4.544-0.452-5.373-1.357
					c-0.831-0.906-1.246-2.434-1.246-4.583v-9.481h-4.11l-0.474-2.627h4.583l-0.013-8.009h-3.319l-0.517-2.627h18.503l-0.563,2.627
					H105.809z M125.343,2.716h-0.056c-0.719-0.829-1.153-1.603-1.302-2.32h8.995c0.115,0.378,0.284,0.717,0.51,1.019
					C133.715,1.717,134,2,134.338,2.264l-1.697,0.452h12.279l-0.585,2.668h-32.29l-0.509-2.668H125.343z M134.961,39.775
					c0.414-0.038,0.696-0.254,0.849-0.65c0.15-0.396,0.226-0.877,0.226-1.443V22.519c0-0.603-0.093-6.657-0.282-7.544
					c-0.189-0.885-1.018-1.386-2.489-1.5c-1.435-0.113-3.161-0.085-5.177,0.086c-2.018,0.169-4.066,0.406-6.138,0.706l-0.964-0.739
					V45.49h-8.203V10.813h4.64c-0.113-0.113-0.208-0.206-0.284-0.282c-0.564-0.603-1.074-1.773-1.525-3.508h9.618
					c0.15,0.603,0.319,1.084,0.508,1.442c0.189,0.359,0.49,0.784,0.905,1.274l-4.017,1.47c2.264-0.376,4.547-0.622,6.847-0.736
					c0.49,0,0.905,0,1.246,0c0.037-0.15,0.093-0.3,0.169-0.452c0.414-1.056,0.753-2.055,1.018-2.998h9.562
					c-0.338,1.433-0.792,2.658-1.359,3.677c1.962,0.378,3.112,1.208,3.453,2.489c0.375,1.584,0.584,2.999,0.623,4.244v21.833
					c0,2.075-0.417,3.63-1.246,4.668c-0.829,1.037-2.244,1.556-4.243,1.556h-4.301l-0.451-2.037l-0.284,1.018h-7.185
					c-1.432,0-2.479-0.264-3.139-0.792s-0.991-1.566-0.991-3.112V28.003h1.923V23.82h-2.163l-0.487-2.625h2.65v-5.748h8.318v5.748
					h2.748l-0.406,2.625h-2.342v4.352c0.829,0.19,1.924,0.326,2.242,1.188c0.717,1.938,0.151,8.587-0.243,10.43L134.961,39.775z
					 M127.096,30.466v10.967h5.601l-3.225-0.565c0.566-0.658,0.926-9.396,0.308-10.097s-1.534-0.312-2.287-0.086L127.096,30.466z"/>
				<path fill="#364A9B" d="M179.019,14.881c-0.189,1.735-0.709,3.517-1.557,5.346c-0.849,1.831-2.045,3.178-3.593,4.045
					l-5.883-1.357c0.829-1.283,1.535-2.527,2.121-3.735c0.584-1.207,1.084-2.639,1.498-4.299H179.019z M199.332,10.17
					c0.679-1.471,0.733-1.55,1.073-2.872c0.64-2.489,1.207-4.846,1.697-7.071c-0.039-0.038,2.96-0.038,8.995,0
					c-0.338,1.357-1.031,4.183-1.445,5.504h12.103l-0.464,2.625h-1.411c-0.189,4.149-0.54,10.166-1.03,13.484
					c-0.49,3.395-1.378,6.677-2.658,9.845c-0.643,1.547-1.359,2.98-2.151,4.3c0.189,0.189,0.397,0.396,0.623,0.622
					c2.075,1.962,4.355,3.659,6.845,5.092l-3.733,3.961c-2.867-0.754-5.584-2.282-8.149-4.582c-2.111,1.961-4.525,3.527-7.242,4.696
					l-3.563-2.66l-1.471,2.206c-2.791-0.189-5.488-0.49-8.09-0.905c-1.697-0.34-3.225-0.698-4.583-1.075
					c-0.454,0.076-0.868,0.17-1.246,0.283c-4.978,0.867-9.032,1.415-12.164,1.641l-2.602-4.582c2.526-0.265,5.148-0.643,7.865-1.132
					c-0.755-0.643-3.787-4.622-4.017-8.181h-3.196l-0.41-2.625h3.039c-0.039-0.754-0.056-2.716-0.056-3.508h8.826
					c0,0.83,0.02,2.792,0.056,3.508h7.696c0-0.716,0-2.678,0-3.508h8.883c0,0.792-0.02,2.754-0.056,3.508h2.561l-0.465,2.625h-2.493
					c-0.276,4.715-3.188,7.709-3.676,8.125c0.302,0.037,0.603,0.093,0.905,0.169c2.111,0.302,3.997,0.585,5.658,0.849
					c2.075-1.433,3.828-2.942,5.263-4.526c-0.679-1.019-1.246-2.131-1.697-3.339c-0.983-2.489-1.879-5.035-2.688-7.638
					c-0.812-2.602-1.332-5.432-1.557-8.486c0.189,0,0.378,0,0.566,0l-2.83-1.188c0.454-0.754,1.63-3.339,1.971-4.057h-10.343v13.223
					h-8.77V11.277h-10.547l-0.353-2.625h4.563c-0.755-0.64-3.473-6.332-3.735-7.803h6.45c0.226,0.868,1.359,5.654,1.81,6.559
					l-2.94,1.245h4.753V0h8.826v8.652h4.118l-2.377-0.621c0.817-0.987,2.143-6.107,2.445-7.126h6.506
					c-0.302,1.622-2.509,7.22-2.997,7.747h3.112L199.332,10.17z M187.957,31.368h-6.675c0.113,0.416,0.739,4.137,3.296,5.952
					C187.177,35.794,187.881,31.784,187.957,31.368z M189.203,14.823h7.355c0.15,1.322,0.471,2.66,0.961,4.018
					c0.49,1.357,1.133,2.64,1.925,3.847l-5.545,1.641c-1.623-1.281-2.754-2.63-3.397-4.045
					C189.863,18.87,189.429,17.05,189.203,14.823z M208.91,8.356c-1.018,2.602-5.036,6.864-6.846,8.222
					c2.602,0.038,5.245,0.02,5.245-0.056c0.037,2.188,0.282,4.281,0.733,6.281c0.341,1.773,0.831,3.659,1.471,5.658
					c0.228-0.566,0.414-1.15,0.566-1.755c0.716-2.602,1.189-5.242,1.415-7.921c0.226-2.602,0.319-7.599,0.282-10.428H208.91z"/>
			</g>
		</g>
		<path fill="#364A9B" d="M160.825,67.952c0.221-4.538-2.234-6.733-7.367-6.584c-4.391-0.073-6.705,1.165-7.687,4.359l0.017,0.005
			c-0.029,0.124-0.048,0.251-0.048,0.384c0,0.912,0.723,1.65,1.614,1.65c0.724,0,1.329-0.49,1.534-1.162l0.014,0.004
			c0.588-1.832,1.952-2.785,4.556-2.785c2.827-0.148,4.167,0.931,4.019,3.237c-0.596,0.669-2.678,1.266-6.25,1.785
			c-4.093,0.521-6.137,2.271-6.137,5.245c0.149,2.902,1.934,4.426,5.357,4.576c3.421-0.076,5.803-1.154,7.141-3.237
			c0.149,1.266,0.447,2.193,0.893,2.79h3.236c-0.595-0.968-0.891-2.12-0.891-3.459V67.952z M157.7,71.299
			c-0.298,3.125-2.232,4.799-5.803,5.023c-2.383,0.074-3.534-0.706-3.459-2.344c-0.074-1.71,1.374-2.752,4.352-3.124
			c2.378-0.297,4.016-0.855,4.91-1.674V71.299z M169.949,76.21c-1.413,0.074-2.083-0.743-2.008-2.456v-2.236
			c0-0.012,0.004-0.024,0.004-0.037v-7.101h3.679v-2.568h-3.679v-5.412c0-0.955-0.749-1.73-1.674-1.73
			c-0.925,0-1.674,0.774-1.674,1.73v0.169l-0.004-0.002v5.245h-2.678v2.568h2.678v9.931c-0.074,2.975,1.34,4.426,4.242,4.352
			c1.412,0,2.491-0.299,3.236-0.893l-0.557-1.897C171.066,76.099,170.545,76.21,169.949,76.21z M213.25,61.48
			c-5.431,0.223-8.258,3.162-8.479,8.816c0.296,5.283,3.048,8.071,8.256,8.37c5.431-0.15,8.22-2.975,8.371-8.482
			C221.174,64.604,218.458,61.703,213.25,61.48z M213.139,76.21c-3.199-0.149-4.837-2.157-4.91-6.027
			c0.072-3.942,1.71-5.951,4.91-6.026c3.049,0.223,4.648,2.232,4.799,6.026C217.862,74.128,216.265,76.137,213.139,76.21z
			 M107.172,54.672c-0.955,0-1.729,0.774-1.729,1.73v8.202c-0.894-2.008-2.606-3.086-5.133-3.236
			c-4.763,0.074-7.18,3.088-7.254,9.039c0.149,5.209,2.417,7.959,6.807,8.258c2.751,0,4.612-1.005,5.58-3.013v0.847h0.001
			c0.006,0.95,0.777,1.719,1.728,1.719c0.952,0,1.723-0.769,1.728-1.719h0.001V56.402C108.902,55.447,108.128,54.672,107.172,54.672
			z M105.443,71.929c-0.396,2.788-1.844,4.218-4.352,4.281c-2.976-0.073-4.501-2.083-4.576-6.027c0.074-3.942,1.6-5.987,4.576-6.137
			c2.441,0.34,3.889,1.702,4.352,4.079V71.929z M141.156,54.672c-0.955,0-1.729,0.774-1.729,1.73v8.202
			c-0.894-2.008-2.606-3.086-5.133-3.236c-4.763,0.074-7.179,3.088-7.254,9.039c0.149,5.209,2.417,7.959,6.807,8.258
			c2.751,0,4.612-1.005,5.58-3.013v0.837c0,0.955,0.774,1.729,1.729,1.729s1.729-0.774,1.729-1.729V56.402
			C142.885,55.447,142.111,54.672,141.156,54.672z M139.427,71.929c-0.396,2.788-1.844,4.218-4.352,4.281
			c-2.976-0.073-4.501-2.083-4.576-6.027c0.074-3.942,1.6-5.987,4.576-6.137c2.441,0.34,3.889,1.702,4.352,4.079V71.929z
			 M201.059,61.817c-0.925,0-1.674,0.774-1.674,1.73v12.943c0,0.955,0.749,1.729,1.674,1.729c0.924,0,1.674-0.774,1.674-1.729
			V63.546C202.732,62.591,201.983,61.817,201.059,61.817z M124.837,60.744c-0.706,0-1.31,0.442-1.565,1.07l0,0l-3.795,11.048
			l-0.668,2.121h-0.113l-0.67-2.121l-4.107-10.99c-0.002-0.005-0.003-0.01-0.005-0.014l-0.016-0.044l-0.006,0.003
			c-0.267-0.581-0.851-0.987-1.532-0.987c-0.933,0-1.69,0.756-1.69,1.69c0,0.264,0.065,0.51,0.173,0.732l6.292,14.409
			c-0.521,1.265-0.857,2.045-1.004,2.344c-0.598,1.413-1.602,2.082-3.014,2.008c-0.668,0-1.376-0.15-2.119-0.446l0.221,2.455
			c0.596,0.371,1.6,0.557,3.014,0.557c2.304,0.297,4.165-1.562,5.58-5.58c0.817-1.86,2.583-6.099,6.528-15.696l-0.018-0.009
			c0.129-0.245,0.21-0.52,0.21-0.818C126.532,61.519,125.773,60.744,124.837,60.744z M189.055,67.952
			c0.221-4.538-2.234-6.733-7.367-6.584c-4.391-0.073-6.705,1.165-7.687,4.359l0.017,0.005c-0.029,0.124-0.048,0.251-0.048,0.384
			c0,0.912,0.723,1.65,1.614,1.65c0.724,0,1.329-0.49,1.534-1.162l0.014,0.004c0.588-1.832,1.952-2.785,4.556-2.785
			c2.827-0.148,4.167,0.931,4.019,3.237c-0.596,0.669-2.678,1.266-6.25,1.785c-4.093,0.521-6.137,2.271-6.137,5.245
			c0.149,2.902,1.934,4.426,5.357,4.576c3.421-0.076,5.803-1.154,7.141-3.237c0.149,1.266,0.447,2.193,0.894,2.79h3.236
			c-0.596-0.968-0.891-2.12-0.891-3.459V67.952z M185.93,71.299c-0.298,3.125-2.232,4.799-5.803,5.023
			c-2.383,0.074-3.533-0.706-3.459-2.344c-0.074-1.71,1.374-2.752,4.352-3.124c2.378-0.297,4.016-0.855,4.91-1.674V71.299z
			 M201.059,55.23c-0.967,0-1.75,0.784-1.75,1.75s0.784,1.75,1.75,1.75c0.967,0,1.75-0.784,1.75-1.75S202.025,55.23,201.059,55.23z
			 M193.631,73.959c-1.176,0-2.13,0.953-2.13,2.129s0.954,2.129,2.13,2.129c1.176,0,2.13-0.953,2.13-2.129
			S194.807,73.959,193.631,73.959z"/>
	</g>
	<linearGradient id="SVGID_2_" gradientUnits="userSpaceOnUse" x1="39.7909" y1="82.1365" x2="39.7909" y2="4.6282">
		<stop  offset="0" style="stop-color:#BF479A"/>
		<stop  offset="0.1295" style="stop-color:#B4489A"/>
		<stop  offset="0.378" style="stop-color:#99499A"/>
		<stop  offset="0.717" style="stop-color:#6C499B"/>
		<stop  offset="1" style="stop-color:#364A9B"/>
	</linearGradient>
	<path fill="url(#SVGID_2_)" d="M32.309,1.593c-5.721,8.809-12.603,21.69-13.857,32.555c-0.789,6.835,0.658,11.083,1.343,13.435
		c2.663,10.056,0.291,19.192-2.985,25.099c-0.88,1.73-1.356,4.195,1.919,6.537c3.129,1.867,15.449,3.133,22.659,0.636
		c7.341-2.543,14.489-7.729,18.19-14.934c9.211-16.167-0.278-28.528-6.225-35.514c0,0-5.692-6.565-9.922-11.681
		C41.058,15.007,34.834,9.607,32.309,1.593z"/>
</g>
</svg>
