<?xml version="1.0" encoding="UTF-8"?>
<svg width="31px" height="26px" viewBox="0 0 31 26" version="1.1" xmlns="http://www.w3.org/2000/svg" xmlns:xlink="http://www.w3.org/1999/xlink">
    <title>图表</title>
    <g id="页面-1" stroke="none" stroke-width="1" fill="none" fill-rule="evenodd">
        <g id="查询数据3" transform="translate(-556.000000, -262.000000)" fill="#00A370" fill-rule="nonzero">
            <g id="Group" transform="translate(541.000000, 245.000000)">
                <g id="图表" transform="translate(15.000000, 17.000000)">
                    <path d="M20,16 L20,25.5090723 C20,25.6346839 19.9581911,25.7603275 19.8746958,25.8561895 C19.7912005,25.9520514 19.6817226,26 19.5722474,26 L19.5722474,26 L16.4277526,26 C16.3183053,26 16.2088302,25.9520163 16.1253042,25.8561895 C16.0417783,25.7603627 16,25.6347159 16,25.5090723 L16,25.5090723 L16,18.3735686 L16.8027778,19.1587588 L20,16 Z M4,18 L4,25.4945454 C4,25.623874 3.95821725,25.7532355 3.87468238,25.851934 C3.79117815,25.9506326 3.68168852,26 3.57220166,26 L3.57220166,26 L0.427798336,26 C0.318339336,26 0.208852484,25.9506326 0.125317618,25.851934 C0.0417521149,25.7532717 0,25.6239069 0,25.4945454 L0,25.4945446 L0,21.8984363 L4,18 Z M10.0012241,14 L12,15.9156898 L12,25.5185583 C12,25.6417428 11.9582259,25.7649587 11.8747082,25.8589683 C11.7912213,25.9529779 11.6817542,26 11.57229,26 L11.57229,26 L8.42771004,26 C8.31827363,26 8.20880938,25.9529779 8.12529175,25.8589683 C8.0417435,25.7649931 8,25.6417741 8,25.5185583 L8,25.5185583 L8,15.855317 L10.0012241,14 Z M27,9 L27,25.498461 C27,25.6267877 26.9582045,25.7551471 26.874736,25.8530811 C26.7912674,25.9510151 26.6818246,26 26.5723846,26 L26.5723846,26 L23.4276154,26 C23.3182032,26 23.2087632,25.9509791 23.125264,25.8530811 C23.0417649,25.755183 23,25.6268204 23,25.498461 L23,25.4984602 L23,13.039494 L27,9 Z M30.8351458,0 C30.8773157,0 30.9195177,0.0158280988 30.9516964,0.0474820158 C30.9839106,0.0791707731 31,0.120652797 31,0.162166495 L31,0.162166495 L31,8.19094393 C31,8.25431828 30.9620159,8.31444932 30.8988787,8.34049396 C30.8357415,8.36653861 30.7655465,8.35100304 30.7195837,8.3065691 L30.7195837,8.3065691 L27.8478243,5.52831867 L16.490561,15.1457947 L10.1075722,9.79845552 L0,18 L0,14.4570762 L10.1075658,6.2551073 L16.4905545,11.6033207 L25.8928472,3.63957334 L22.4171291,0.277787352 C22.3708379,0.232998675 22.3540241,0.16349245 22.3801367,0.100735725 C22.4062494,0.0379789993 22.4677735,0 22.5327266,0 L22.5327279,0 Z" id="形状结合"></path>
                </g>
            </g>
        </g>
    </g>
</svg>