<?xml version="1.0" encoding="UTF-8"?>
<svg width="40px" height="40px" viewBox="0 0 40 40" version="1.1" xmlns="http://www.w3.org/2000/svg" xmlns:xlink="http://www.w3.org/1999/xlink">
    <!-- Generator: Sketch 56 (81588) - https://sketch.com -->
    <title>购买</title>
    <desc>Created with Sketch.</desc>
    <g id="购买" stroke="none" stroke-width="1" fill="none" fill-rule="evenodd">
        <g transform="translate(1.000000, 1.000000)">
            <path d="M35.0766596,10.7852852 C32.0871866,4.9464274 26.0103011,0.95 19,0.95 C9.03126027,0.95 0.95,9.03126027 0.95,19 C0.95,28.9687397 9.03126027,37.05 19,37.05 C28.9687397,37.05 37.05,28.9687397 37.05,19 C37.05,18.7895536 37.0463985,18.5799484 37.0392538,18.3712426" id="路径" stroke="#8759F0" stroke-width="3.2"></path>
            <path d="M17.2727273,16.7621831 L17.2727273,30.7378169 C17.2727273,31.4075757 17.8491451,31.9545455 18.5681818,31.9545455 C19.281276,31.9545455 19.8636364,31.4131571 19.8636364,30.7378169 L19.8636364,16.7621831 C19.8636364,16.0924243 19.2872185,15.5454545 18.5681818,15.5454545 C17.8491451,15.5510359 17.2727273,16.0924243 17.2727273,16.7621831 Z" id="路径" fill="#8759F0" fill-rule="nonzero"></path>
            <path d="M12.8509945,21.1021429 L25.4125343,21.1021429 C26.0713563,21.1021429 26.6093943,20.5668112 26.6093943,19.8990262 C26.6093943,19.2367601 26.0768465,18.6959095 25.4125343,18.6959095 L12.8509945,18.6959095 C12.1921725,18.6959095 11.6541345,19.2312412 11.6541345,19.8990262 C11.6541345,20.5612923 12.1866823,21.1021429 12.8509945,21.1021429 Z M12.8509945,25.9090909 L25.4125343,25.9090909 C26.0713563,25.9090909 26.6093943,25.3737592 26.6093943,24.7059742 C26.6093943,24.0437081 26.0768465,23.5028575 25.4125343,23.5028575 L12.8509945,23.5028575 C12.1921725,23.5028575 11.6541345,24.0381892 11.6541345,24.7059742 C11.6541345,25.3682403 12.1866823,25.9090909 12.8509945,25.9090909 Z M24.7262614,8.9881925 L19.6039202,14.1373113 C19.269019,14.4739632 18.7200007,14.4739632 18.3850994,14.1373113 L13.2682484,8.9881925 C12.8015828,8.51908735 12.0439375,8.51908735 11.5772719,8.9881925 C11.1106063,9.45729766 11.1106063,10.2189037 11.5772719,10.6880088 L16.6996131,15.8371276 C17.9623553,17.1064709 20.0321545,17.1119898 21.3003869,15.8371276 L26.4227281,10.6880088 C26.8893937,10.2189036 26.8893937,9.45729762 26.4227281,8.9881925 C25.9505723,8.51908735 25.192927,8.51908735 24.7262614,8.9881925 L24.7262614,8.9881925 Z" id="形状" fill="#8759F0" fill-rule="nonzero"></path>
        </g>
    </g>
</svg>